<?xml version="1.0" standalone="no"?>
<!DOCTYPE svg PUBLIC "-//W3C//DTD SVG 20010904//EN"
 "http://www.w3.org/TR/2001/REC-SVG-20010904/DTD/svg10.dtd">
<svg version="1.0" xmlns="http://www.w3.org/2000/svg"
 width="1000.000000pt" height="1000.000000pt" viewBox="0 0 1000.000000 1000.000000"
 preserveAspectRatio="xMidYMid meet">
<metadata>
Created by potrace 1.14, written by Peter Selinger 2001-2017
</metadata>
<g transform="translate(0.000000,1000.000000) scale(0.100000,-0.100000)"
fill="#000000" stroke="none">
<path d="M72 7708 c-15 -19 -14 -205 2 -220 10 -11 220 -13 1044 -13 567 0
1034 4 1039 8 12 12 12 209 0 225 -7 9 -228 12 -1042 12 -814 0 -1035 -3
-1043 -12z"/>
<path d="M175 7390 c-19 -21 -21 -51 -7 -77 l13 -23 932 0 c532 0 938 4 946 9
18 11 19 77 2 94 -9 9 -225 12 -942 12 -814 0 -932 -2 -944 -15z"/>
<path d="M73 7208 c-4 -7 -8 -17 -8 -23 -1 -14 93 -207 108 -223 13 -12 73
-13 1600 -12 l287 0 49 103 c60 126 60 128 49 150 -8 16 -68 17 -1043 17 -816
0 -1035 -3 -1042 -12z"/>
<path d="M2349 7108 c-1 -4 -1 -19 -1 -33 0 -14 0 -29 1 -35 0 -5 29 -10 64
-10 l62 0 0 -662 -1 -663 -64 -5 -65 -5 -1 -37 c-1 -26 4 -38 15 -40 9 -2 149
-4 310 -3 l295 0 3 43 2 42 -52 1 c-29 1 -65 0 -81 -1 -16 -1 -31 3 -35 8 -4
8 -6 415 -2 466 1 10 88 0 125 -13 22 -9 70 -62 72 -79 0 -7 17 -63 86 -287
36 -117 62 -155 125 -185 114 -54 290 -22 438 80 l39 27 58 -39 c157 -108 381
-124 556 -41 31 15 63 32 71 37 34 26 151 145 151 154 0 6 -12 20 -26 31 -26
20 -27 21 -43 2 -57 -66 -159 -120 -261 -138 -224 -39 -357 132 -352 452 2
142 25 233 82 317 51 75 99 110 152 111 55 0 112 -24 134 -58 19 -29 46 -135
35 -135 -4 0 -6 -13 -3 -29 5 -38 -39 -130 -85 -178 -43 -43 -125 -83 -193
-92 -11 -2 -8 -41 3 -48 53 -33 254 -16 342 30 90 46 185 157 200 232 2 11 4
20 5 20 1 0 3 22 5 49 3 59 -12 122 -37 159 -22 30 -21 30 48 45 23 5 47 7 52
3 6 -4 10 -177 10 -489 0 -266 3 -487 7 -490 9 -9 306 -8 312 1 3 5 5 178 4
385 0 229 4 395 10 424 19 82 98 146 193 154 59 6 107 -14 140 -59 19 -26 20
-43 22 -375 1 -372 4 -397 57 -478 61 -92 237 -116 379 -50 29 14 66 34 82 45
l29 19 23 -28 c22 -25 78 -59 114 -68 41 -10 160 -3 203 12 72 26 217 118 217
139 0 2 -9 14 -19 26 l-19 22 -36 -25 c-77 -52 -161 -43 -191 21 -15 32 -17
78 -17 387 0 193 1 361 1 374 1 22 3 22 121 22 l120 0 0 45 0 45 -120 -3
c-114 -2 -120 -1 -121 18 0 11 -1 81 -2 155 l-2 135 -155 1 c-85 1 -157 -2
-161 -7 -3 -5 -5 -72 -4 -150 1 -80 -3 -143 -9 -146 -5 -3 -42 -6 -83 -5 -67
1 -75 -1 -82 -20 -4 -12 -6 -32 -3 -45 4 -22 8 -23 91 -23 l86 0 1 -362 c1
-200 4 -384 8 -409 7 -46 7 -47 -25 -58 -72 -25 -130 -3 -150 56 -8 26 -12
135 -14 363 -1 367 -3 380 -71 458 -57 66 -147 105 -239 105 -17 0 -129 -13
-150 -17 -64 -13 -201 -86 -220 -116 -3 -5 -27 4 -53 20 -116 73 -288 98 -411
60 -58 -17 -60 -17 -103 2 -75 34 -152 46 -265 44 -128 -3 -182 -16 -283 -65
-76 -36 -188 -134 -211 -183 -5 -13 -19 -39 -29 -58 -18 -32 -35 -82 -48 -135
-3 -11 -5 -67 -5 -125 0 -125 25 -219 85 -312 21 -32 38 -63 38 -69 0 -14 -63
-39 -99 -39 -37 0 -74 16 -88 39 -6 9 -30 80 -53 156 -23 76 -50 155 -60 175
-22 43 -80 97 -123 115 l-30 13 24 7 c55 16 156 73 201 114 93 83 129 174 124
315 -4 105 -7 118 -40 192 -57 125 -194 204 -421 244 -81 15 -714 22 -716 8z
m611 -101 c68 -25 94 -41 143 -86 75 -70 106 -158 102 -290 -4 -129 -26 -184
-108 -262 -28 -27 -59 -49 -69 -49 -10 0 -18 -4 -18 -9 0 -8 -27 -20 -55 -26
-5 -1 -21 -5 -35 -9 -45 -12 -120 -14 -121 -2 -4 33 -4 742 -1 749 7 14 105 5
162 -16z"/>
<path d="M6579 7111 c-11 -76 -7 -81 61 -81 38 0 59 -4 62 -12 3 -11 2 -1224
-1 -1296 -1 -20 -6 -23 -33 -21 -18 1 -47 1 -64 0 -29 -1 -31 -3 -30 -38 1
-21 4 -40 8 -43 18 -14 752 -1 828 15 14 3 39 8 55 10 67 12 196 65 223 92 7
7 17 13 22 13 17 0 90 104 101 144 17 61 18 148 4 190 -42 121 -120 175 -343
235 -41 12 -49 31 -13 31 10 0 52 16 92 36 54 27 92 55 139 105 63 66 142 119
179 119 16 0 17 -25 18 -392 1 -373 2 -396 22 -448 26 -69 80 -126 150 -158
45 -21 70 -25 140 -25 163 -1 242 26 357 119 l42 34 11 -28 c56 -131 240 -166
421 -79 30 14 66 37 80 49 56 51 56 51 86 23 28 -26 83 -55 133 -70 34 -10
154 -7 209 6 131 32 249 125 312 247 36 70 37 64 5 -33 -67 -205 -166 -351
-294 -430 -45 -27 -151 -69 -151 -58 0 3 -6 1 -12 -5 -13 -10 -338 -12 -338
-2 0 3 -17 4 -37 3 -70 -3 -87 -4 -213 -4 -69 1 -155 0 -191 0 -36 0 -70 1
-75 2 -5 1 -13 0 -19 -1 -21 -4 -126 0 -135 5 -6 4 -10 3 -10 -2 0 -4 -57 -7
-127 -5 -71 1 -132 2 -138 2 -5 0 -784 -2 -1730 -5 -946 -3 -2156 -7 -2690 -8
-1078 -4 -977 3 -1085 -70 -102 -69 -347 -303 -535 -512 -44 -49 -87 -96 -95
-105 -8 -9 -42 -47 -75 -85 -33 -39 -62 -72 -65 -75 -5 -5 -125 -143 -174
-200 -12 -14 -55 -65 -96 -115 -41 -49 -83 -97 -92 -106 -10 -9 -18 -19 -18
-23 0 -3 -8 -14 -17 -24 -10 -10 -27 -29 -38 -43 -11 -13 -65 -78 -119 -144
-55 -66 -104 -124 -110 -130 -6 -5 -28 -31 -49 -57 -21 -26 -43 -53 -50 -60
-7 -7 -28 -33 -48 -58 -20 -25 -45 -55 -55 -67 -11 -12 -28 -32 -38 -45 -29
-35 -120 -142 -126 -148 -3 -3 -25 -30 -50 -60 -25 -30 -52 -62 -60 -70 -8 -9
-35 -40 -60 -69 -25 -30 -58 -68 -75 -86 -16 -18 -61 -68 -100 -111 -109 -123
-273 -281 -331 -319 -30 -20 -65 -35 -82 -35 -36 0 -56 -22 -47 -50 9 -28 40
-26 117 7 117 51 179 105 376 331 61 70 144 163 182 205 25 27 53 59 63 71 57
65 74 85 111 126 23 25 73 81 111 125 39 43 81 90 94 104 13 14 48 55 79 90
65 73 68 75 187 206 50 54 104 114 122 134 17 20 48 54 70 77 238 255 316 337
493 514 195 195 350 341 415 392 16 13 37 30 46 39 9 9 43 36 75 60 33 24 61
46 64 49 3 4 21 15 40 27 105 62 136 74 194 79 106 9 386 9 386 1 0 -5 4 -5
10 -2 5 3 49 6 97 5 272 -2 1218 -18 1218 -20 0 0 133 -3 295 -5 162 -3 390
-8 505 -10 116 -3 334 -7 485 -10 151 -3 388 -7 525 -10 574 -11 1598 -27
1640 -25 17 1 37 2 45 1 62 -4 1028 -1 1153 4 171 6 240 21 318 71 123 78 247
226 329 393 38 77 94 240 105 303 3 18 11 53 17 78 16 72 22 144 22 310 1 152
-2 186 -24 302 -18 93 -56 166 -107 205 -31 24 -46 28 -103 28 -58 0 -71 -4
-104 -28 -98 -76 -78 -234 35 -281 39 -16 113 -14 135 4 37 32 70 -159 51
-300 -17 -128 -105 -258 -205 -303 -64 -27 -150 -30 -198 -6 -67 33 -69 40
-70 429 -1 190 -2 352 -3 361 -2 29 -56 77 -104 93 -46 16 -163 17 -222 2 -41
-10 -102 -34 -135 -55 -46 -27 -49 -27 -45 9 l4 31 -162 -3 -162 -3 -1 -385
c0 -212 -4 -402 -8 -423 -16 -85 -112 -159 -207 -159 -58 -1 -97 18 -126 61
l-23 34 0 399 c0 408 -2 426 -39 455 -38 30 -116 55 -166 56 -39 0 -166 -22
-180 -32 -5 -4 -22 -12 -37 -19 -28 -11 -28 -11 -27 26 4 107 -38 210 -109
273 -61 53 -180 108 -247 114 -5 1 -19 4 -30 8 -11 3 -42 9 -70 13 -63 8 -725
13 -726 5z m679 -116 c57 -25 149 -108 153 -136 2 -14 5 -22 15 -44 5 -11 9
-63 8 -115 0 -74 -5 -105 -21 -140 -28 -62 -89 -122 -160 -156 -49 -25 -70
-29 -142 -29 l-85 0 -1 320 c0 176 1 324 4 329 2 4 40 6 85 4 61 -3 96 -11
144 -33z m1824 -712 c0 -321 7 -422 33 -474 14 -26 14 -29 -14 -48 -62 -45
-152 -36 -188 18 -16 23 -17 60 -18 376 l-1 350 28 27 c15 14 47 36 70 48 24
13 50 26 58 30 8 4 19 4 24 -1 5 -4 9 -150 8 -326z m-1800 -18 c111 -37 189
-118 204 -213 3 -20 7 -39 9 -42 2 -3 -1 -30 -7 -60 -20 -112 -98 -193 -223
-232 -41 -13 -228 -20 -235 -9 -4 7 -5 542 -1 573 2 14 199 0 253 -17z"/>
<path d="M185 6877 c-29 -10 -26 30 -28 -382 l-2 -270 -37 -3 c-46 -4 -64 -23
-48 -51 11 -21 17 -21 424 -21 440 0 443 0 434 47 -2 13 -15 19 -43 23 l-40 5
-1 140 c0 160 7 202 49 266 101 156 318 160 443 6 6 -7 20 -38 31 -68 16 -45
19 -79 19 -199 l-1 -145 -38 -6 c-50 -8 -61 -20 -41 -47 l15 -22 409 0 c358 0
411 2 424 16 25 24 4 52 -42 56 l-37 3 -1 318 c0 219 -4 321 -11 328 -8 8 -56
11 -135 10 -166 -1 -485 -1 -1156 2 -309 1 -573 -2 -587 -6z m483 -99 c15 -15
17 -370 2 -398 -9 -17 -23 -18 -174 -17 -91 1 -168 6 -172 10 -9 9 -10 376 -1
400 6 15 25 17 170 17 113 0 167 -4 175 -12z m1228 5 c11 -4 14 -42 14 -202 0
-108 -4 -201 -8 -207 -9 -15 -322 -17 -339 -2 -10 8 -13 62 -13 208 0 149 3
200 13 203 16 7 315 7 333 0z"/>
<path d="M392 6716 c-10 -17 -7 -267 3 -276 6 -4 55 -7 110 -7 l100 2 3 134
c1 78 -1 138 -7 144 -13 13 -201 15 -209 3z"/>
<path d="M1637 6722 c-18 -4 -18 -2 -19 -173 0 -53 2 -101 6 -107 7 -12 196
-13 211 -2 10 8 13 266 3 276 -6 5 -175 11 -201 6z"/>
<path d="M200 6079 c-17 -4 -34 -9 -37 -13 -12 -11 -6 -287 6 -299 17 -17 646
-16 663 1 8 8 12 56 11 153 -1 154 -2 158 -58 159 -198 5 -561 4 -585 -1z"/>
<path d="M1436 6080 c-32 -4 -41 -10 -46 -30 -8 -32 -4 -279 4 -287 12 -12
648 -9 665 3 14 10 16 33 15 153 0 81 -5 146 -11 152 -11 11 -554 18 -627 9z"/>
<path d="M74 5673 c-15 -15 -19 -52 -6 -54 4 0 193 -1 420 -2 387 -2 414 -1
430 16 12 14 14 22 5 35 -9 16 -47 17 -423 18 -340 0 -414 -2 -426 -13z"/>
<path d="M1316 5678 c-19 -11 -21 -44 -4 -54 7 -4 192 -8 412 -9 428 -2 451 0
439 45 -3 11 -8 21 -12 22 -27 6 -823 2 -835 -4z"/>
<path d="M2960 4483 c0 -31 2 -33 33 -33 31 0 34 3 35 30 0 17 -2 30 -6 31
-58 8 -62 7 -62 -28z"/>
<path d="M2892 4366 c-8 -14 -9 -22 -17 -120 -4 -45 -8 -92 -10 -106 -2 -14
-6 -45 -9 -70 l-5 -45 122 2 c169 2 167 1 162 16 -2 6 -6 37 -9 67 -3 30 -8
73 -11 95 -2 22 -7 66 -9 98 -2 32 -7 62 -11 65 -12 12 -195 10 -203 -2z"/>
<path d="M8256 4034 c-128 -70 -120 -254 13 -310 79 -33 178 2 217 77 31 61
19 146 -28 196 -48 51 -143 68 -202 37z"/>
<path d="M2839 3938 c-14 -26 -11 -48 9 -49 9 0 84 -1 165 -2 144 -2 148 -1
143 18 -3 11 -6 27 -6 35 0 13 -24 15 -151 15 -132 0 -152 -2 -160 -17z"/>
<path d="M2744 3809 c-6 -11 18 -59 30 -60 6 -1 107 -2 225 -3 204 -1 214 -1
227 19 32 49 36 48 -229 49 -137 1 -251 -2 -253 -5z"/>
<path d="M3985 3796 c-10 -33 -11 -67 -3 -73 6 -3 37 -5 69 -4 l59 1 -2 -682
-3 -683 -62 1 -63 0 0 -43 0 -43 318 0 318 0 2 40 c2 22 -1 41 -5 41 -4 1 -44
3 -88 4 l-80 1 0 220 0 219 65 2 c108 3 214 14 258 27 9 3 28 7 42 10 37 6
150 50 186 72 129 79 195 210 197 389 1 194 -78 342 -223 415 -62 31 -167 66
-232 75 -23 4 -54 9 -68 12 -14 2 -173 5 -353 7 -234 2 -330 0 -332 -8z m621
-99 c42 -15 102 -51 140 -84 26 -22 75 -88 78 -105 2 -7 8 -25 14 -40 11 -28
22 -92 27 -157 3 -52 -20 -173 -43 -217 -53 -103 -149 -174 -269 -199 -120
-25 -108 -70 -109 408 l-2 415 62 -3 c33 -2 80 -10 102 -18z"/>
<path d="M2778 3650 c-13 -33 -118 -341 -123 -360 -2 -8 -10 -34 -19 -57 -8
-23 -12 -44 -8 -46 4 -2 48 -3 97 -3 l90 1 2 72 c1 44 8 85 19 105 20 40 72
88 94 88 9 0 20 3 23 7 13 12 83 6 115 -11 38 -20 70 -52 85 -86 15 -35 14
-33 16 -108 l1 -68 98 1 c54 1 96 5 95 11 -4 18 -156 469 -160 473 -2 3 -96 5
-209 5 l-206 1 -10 -25z"/>
<path d="M9259 3640 c-67 -19 -113 -61 -129 -119 -10 -39 -3 -80 25 -148 l17
-42 -50 -94 c-129 -242 -298 -519 -371 -604 -35 -42 -111 -74 -159 -69 -46 5
-66 17 -85 50 -8 15 -12 132 -13 413 -1 437 -2 445 -69 491 -46 32 -155 40
-249 18 -145 -34 -249 -112 -315 -236 -70 -132 -73 -196 -13 -345 70 -173 65
-248 -21 -327 -84 -76 -184 -87 -231 -25 -20 28 -21 39 -22 430 -2 511 0 469
-25 496 -27 29 -60 24 -161 -24 -90 -43 -213 -75 -296 -78 l-63 -2 -18 52
c-22 65 -54 98 -109 112 -70 19 -121 5 -169 -46 -51 -55 -56 -150 -11 -208 25
-32 88 -65 124 -65 l27 0 -7 -82 c-14 -189 -71 -353 -162 -463 -52 -64 -92
-105 -102 -105 -5 0 -15 -7 -22 -16 -17 -19 -75 -44 -105 -44 -44 0 -83 21
-99 54 -13 29 -17 100 -17 301 0 11 0 67 0 125 0 58 0 112 0 120 0 8 0 62 0
120 0 58 0 112 1 120 1 47 -2 105 -6 110 -3 3 -75 6 -160 7 -173 2 -159 9
-154 -77 l2 -35 -51 48 c-77 72 -126 91 -245 93 -270 5 -443 -136 -514 -416
-8 -34 -9 -257 0 -297 55 -271 239 -425 500 -418 118 4 198 42 277 131 41 47
50 50 55 20 5 -38 66 -105 113 -126 128 -58 303 -13 451 115 44 38 141 134
167 166 50 61 135 219 160 299 21 69 30 104 46 198 10 57 13 62 38 63 46 2 74
8 144 28 l67 20 0 -22 c1 -12 1 -161 2 -332 0 -200 5 -327 13 -360 12 -51 39
-110 59 -130 26 -25 78 -57 98 -60 148 -26 264 7 401 116 89 70 137 142 142
210 3 55 2 60 -45 194 -47 134 -44 179 23 314 45 91 109 150 195 179 l32 11 0
-57 c4 -803 3 -802 61 -888 48 -70 162 -103 283 -82 49 9 183 73 211 101 7 7
26 24 42 38 15 13 76 87 133 164 101 135 122 162 165 211 11 12 27 32 35 44 8
13 20 28 25 34 6 6 41 50 80 98 38 48 73 84 76 80 18 -18 81 -145 104 -207 19
-51 27 -96 30 -163 7 -142 -27 -209 -127 -252 -56 -24 -163 -29 -200 -9 -13 7
-25 12 -28 12 -11 -1 -56 22 -73 36 -16 13 -20 12 -43 -13 -31 -33 -27 -39 57
-95 87 -58 201 -89 316 -85 260 8 435 168 434 394 0 60 -18 148 -32 165 -5 5
-9 17 -9 27 0 10 -4 18 -10 18 -5 0 -10 5 -10 10 0 31 -117 160 -221 245 l-77
62 30 48 c50 80 36 174 -32 222 -34 24 -102 41 -131 33z m-3384 -229 c111 -45
176 -216 170 -448 -3 -117 -6 -140 -27 -218 -40 -155 -155 -237 -279 -201 -86
26 -147 115 -173 255 -14 76 -15 297 -1 356 19 84 27 109 50 155 51 100 159
142 260 101z"/>
<path d="M2952 3385 c-39 -17 -60 -54 -62 -111 -3 -98 -13 -90 103 -89 l102 0
3 45 c3 68 -6 105 -34 133 -29 30 -73 38 -112 22z"/>
<path d="M2523 3112 l-33 -3 15 -30 c9 -16 19 -30 23 -31 4 0 215 -2 469 -3
l463 -2 20 34 c18 30 18 33 2 34 -63 2 -933 3 -959 1z"/>
<path d="M2528 2972 c-9 -2 -24 -20 -34 -40 -30 -65 -135 -244 -201 -342 -52
-79 -63 -102 -63 -137 l0 -41 778 1 777 2 1 28 c1 18 -10 39 -30 60 -45 49
-174 257 -256 415 -13 24 -29 46 -37 49 -15 6 -907 10 -935 5z m603 -170 c101
-45 178 -149 196 -265 3 -18 6 -36 6 -42 1 -7 -117 -10 -338 -10 l-340 0 3 35
c4 51 52 167 81 197 85 85 161 116 272 109 46 -2 94 -12 120 -24z"/>
</g>
</svg>
