<svg width="85" height="74" viewBox="0 0 85 74" fill="none" xmlns="http://www.w3.org/2000/svg">
<path d="M82.0451 14.6081C81.7923 14.5647 81.5326 14.5695 81.2817 14.622C81.0309 14.6746 80.7941 14.7739 80.5857 14.9139C80.1686 15.1955 79.8272 15.563 79.5881 15.9876C79.1004 16.7916 78.9711 17.8464 78.9988 18.7689C80.0961 18.6744 80.9921 17.8258 81.417 17.3688C82.0895 16.6473 82.8321 14.9637 82.0451 14.6081Z" fill="#E0E0E0"/>
<path d="M77.2641 19.4697C77.4751 19.2881 77.6307 19.0579 77.715 18.8023C77.7994 18.5468 77.8095 18.275 77.7444 18.0146C77.6746 17.7557 77.5501 17.5123 77.3782 17.2985C77.2063 17.0846 76.9905 16.9047 76.7432 16.7691C76.6365 16.6954 76.5137 16.6443 76.3835 16.6193C76.2533 16.5944 76.1188 16.5963 75.9894 16.6248C75.8737 16.6684 75.7727 16.7403 75.6973 16.8328C75.6218 16.9253 75.5747 17.0351 75.5608 17.1505C75.5356 17.3811 75.5777 17.6138 75.6828 17.824C76.0005 18.5558 76.4531 19.2103 77.2567 19.4697" fill="#E0E0E0"/>
<path d="M76.4069 22.4297C76.4202 22.3656 76.4419 22.3033 76.4716 22.2441L76.6692 21.7545C76.9028 21.221 77.069 20.6641 77.1643 20.095C77.2522 19.5261 77.1842 18.9458 76.9667 18.4079C76.8629 18.1906 76.7393 17.982 76.5972 17.7843C76.651 17.8254 76.6983 17.8734 76.7376 17.9269C76.8539 18.0677 76.9513 18.2211 77.0276 18.3839C77.2684 18.927 77.3482 19.5203 77.2586 20.1018C77.1632 20.6777 76.9862 21.2392 76.7321 21.7717C76.6378 21.9779 76.5584 22.1411 76.4993 22.2527C76.4759 22.3148 76.4449 22.3742 76.4069 22.4297Z" fill="#EBEBEB"/>
<path d="M81.3561 15.8451C81.3561 15.8451 81.3432 15.8709 81.3099 15.9155L81.1622 16.1079L80.6079 16.8071C80.1368 17.3963 79.4884 18.2141 78.7864 19.1245C78.0844 20.035 77.4618 20.8699 77.0129 21.4746L76.4845 22.1841L76.3367 22.3765C76.3211 22.4002 76.3018 22.4216 76.2795 22.4401C76.2795 22.4401 76.2906 22.4143 76.3201 22.3662L76.4531 22.1652C76.5695 21.9934 76.7432 21.7409 76.9612 21.4334C77.3953 20.8201 78.0105 19.98 78.7125 19.0678C79.4145 18.1557 80.0722 17.35 80.5599 16.7642C80.8019 16.4738 81.0014 16.2488 81.1418 16.077L81.3044 15.8949C81.3201 15.877 81.3374 15.8603 81.3561 15.8451Z" fill="#EBEBEB"/>
<path d="M78.0622 20.5743C78.5212 20.2067 79.0677 19.946 79.6565 19.8137C80.2454 19.6813 80.8596 19.6812 81.4485 19.8134C81.7478 19.8838 82.0822 20.0367 82.1246 20.3287C82.1671 20.6207 81.8919 20.844 81.6222 20.9866C81.0525 21.265 80.407 21.3804 79.767 21.3184C79.1269 21.2563 78.5209 21.0196 78.0253 20.6379" fill="#E0E0E0"/>
<path d="M80.7428 20.3647C80.7428 20.3836 80.462 20.332 80.0038 20.3423C79.7393 20.349 79.4759 20.3777 79.2169 20.4282C78.9 20.4929 78.5906 20.5862 78.2932 20.7066C77.9988 20.833 77.7185 20.9861 77.4563 21.1635C77.2429 21.3101 77.0444 21.4746 76.8633 21.6549C76.5548 21.9624 76.4107 22.1909 76.394 22.1806C76.4164 22.1211 76.4468 22.0645 76.4846 22.0122C76.5238 21.9494 76.5676 21.8891 76.6157 21.8318C76.6757 21.7534 76.7405 21.6783 76.8097 21.6068C76.9871 21.417 77.1845 21.2444 77.399 21.0914C77.9271 20.7154 78.5418 20.4585 79.1947 20.3406C79.46 20.2924 79.7299 20.2694 80.0001 20.2719C80.1038 20.2714 80.2075 20.2765 80.3105 20.2874C80.3881 20.292 80.4653 20.3017 80.5414 20.3166C80.6105 20.3244 80.6782 20.3406 80.7428 20.3647Z" fill="#EBEBEB"/>
<path d="M3.37924 4.17705C3.22947 4.37123 3.12331 4.59149 3.06713 4.82468C3.01095 5.05787 3.00589 5.29919 3.05225 5.53424C3.14943 6.00484 3.36113 6.44851 3.67113 6.8313C4.24383 7.58376 5.21556 8.14381 6.12264 8.51489C6.50135 7.55284 6.05983 6.43788 5.79565 5.8847C5.38183 5.00511 4.06648 3.6651 3.37924 4.17705Z" fill="#E0E0E0"/>
<path d="M6.06169 10.2738C5.9759 10.0182 5.81896 9.78829 5.60678 9.60729C5.3946 9.4263 5.13472 9.30068 4.85349 9.24318C4.57184 9.1913 4.28189 9.19207 4.00056 9.24545C3.71922 9.29883 3.45213 9.40374 3.21486 9.55409C3.09744 9.61186 2.99507 9.69286 2.91496 9.79139C2.83484 9.88992 2.77893 10.0036 2.75116 10.1244C2.74596 10.2399 2.77404 10.3546 2.8325 10.4567C2.89096 10.5588 2.97768 10.6445 3.08369 10.7049C3.29731 10.8234 3.54072 10.8873 3.7894 10.8905C4.63735 10.9351 5.46683 10.8338 6.06169 10.2704" fill="#E0E0E0"/>
<path d="M8.57413 12.2596C8.51834 12.2205 8.46752 12.1755 8.42264 12.1257L8.03099 11.746C7.61268 11.3218 7.14275 10.9442 6.63066 10.6209C6.11497 10.3037 5.52144 10.1128 4.90519 10.066C4.65 10.0592 4.39466 10.0736 4.14221 10.109C4.20464 10.0805 4.27125 10.0608 4.33988 10.0506C4.52689 10.0141 4.71791 9.99854 4.90888 10.0042C5.54191 10.0329 6.15477 10.2205 6.68239 10.547C7.20216 10.873 7.67251 11.2624 8.08087 11.7048C8.2416 11.8766 8.36537 12.0088 8.45035 12.105C8.4975 12.1523 8.539 12.2041 8.57413 12.2596Z" fill="#EBEBEB"/>
<path d="M4.28817 5.28345C4.28817 5.28345 4.30849 5.30578 4.3362 5.35216C4.36392 5.39854 4.41195 5.47757 4.45998 5.56003C4.57267 5.75243 4.72046 6.01183 4.90151 6.3262C5.27099 6.97556 5.79196 7.87229 6.37943 8.84805C6.9669 9.8238 7.51004 10.7085 7.90538 11.3441L8.37462 12.0983C8.42266 12.1807 8.4633 12.2477 8.4984 12.3044C8.5335 12.3611 8.53904 12.3783 8.53535 12.38C8.51475 12.3603 8.49676 12.3384 8.48177 12.3147L8.34137 12.1155C8.22314 11.9437 8.05318 11.6911 7.84811 11.3768C7.43614 10.748 6.88377 9.8719 6.2963 8.89271C5.70882 7.91352 5.19894 7.01163 4.84239 6.3554C4.65765 6.02729 4.52094 5.76102 4.42673 5.57549L4.31958 5.36075C4.29556 5.31093 4.28448 5.28517 4.28817 5.28345Z" fill="#EBEBEB"/>
<path d="M7.47868 10.0746C7.31729 9.53173 7.29729 8.96093 7.42033 8.40945C7.54337 7.85797 7.80593 7.34168 8.18624 6.90333C8.38207 6.68172 8.67396 6.46699 8.9677 6.55975C9.26143 6.65252 9.37228 6.9772 9.3926 7.26238C9.42274 7.86012 9.262 8.45279 8.93063 8.96575C8.59925 9.47871 8.11206 9.88903 7.53041 10.145" fill="#E0E0E0"/>
<path d="M8.42072 7.73132C8.43735 7.74163 8.26924 7.95465 8.0845 8.33946C7.97768 8.56496 7.89298 8.79898 7.83141 9.03865C7.75866 9.33248 7.7172 9.63227 7.70764 9.93367C7.70519 10.235 7.73365 10.5358 7.79262 10.8321C7.84475 11.0714 7.91955 11.306 8.01615 11.533C8.18426 11.9247 8.34498 12.1446 8.32835 12.1532C8.28201 12.1085 8.24226 12.0582 8.21012 12.0037C8.16457 11.9445 8.12441 11.8819 8.09004 11.8165C8.03974 11.7328 7.99411 11.6468 7.95334 11.5588C7.84673 11.329 7.76384 11.0903 7.70579 10.8459C7.63894 10.5441 7.60736 10.2366 7.61158 9.92852C7.62109 9.62093 7.66568 9.31515 7.74459 9.01631C7.81143 8.77296 7.90426 8.53643 8.02169 8.31025C8.0658 8.223 8.11514 8.13812 8.16948 8.05601C8.2071 7.99193 8.24971 7.9305 8.29695 7.87219C8.33152 7.82048 8.37312 7.77313 8.42072 7.73132Z" fill="#EBEBEB"/>
<path d="M23.9649 73.6811C24.2084 73.758 24.466 73.7886 24.7225 73.7709C24.979 73.7532 25.229 73.6876 25.4576 73.578C25.9134 73.3555 26.3089 73.0394 26.614 72.6538C27.2218 71.9254 27.5174 70.8998 27.6375 69.9824C26.529 69.9257 25.5167 70.6421 25.0234 71.0355C24.2438 71.6574 23.2425 73.2224 23.9649 73.6811Z" fill="#E0E0E0"/>
<path d="M29.4646 69.5273C29.2271 69.6782 29.0367 69.8848 28.9128 70.1262C28.7889 70.3675 28.7358 70.635 28.7589 70.9016C28.7857 71.1683 28.8696 71.4272 29.0057 71.6633C29.1418 71.8993 29.3274 72.1076 29.5514 72.2759C29.6451 72.363 29.7581 72.4301 29.8825 72.4725C30.007 72.515 30.1398 72.5317 30.2719 72.5215C30.3923 72.493 30.5023 72.4352 30.5906 72.354C30.679 72.2727 30.7424 72.1711 30.7744 72.0594C30.8361 71.8333 30.831 71.5959 30.7596 71.3723C30.5619 70.6044 30.2165 69.895 29.4664 69.5273" fill="#E0E0E0"/>
<path d="M30.7817 66.7184C30.7581 66.7791 30.7265 66.8368 30.6875 66.8902L30.4104 67.3472C30.0948 67.8427 29.8425 68.3709 29.6585 68.9208C29.4812 69.4714 29.4564 70.0547 29.5865 70.6165C29.6539 70.8453 29.7422 71.0683 29.8507 71.2831C29.8038 71.2353 29.7646 71.1815 29.7343 71.1233C29.6408 70.9686 29.5688 70.8035 29.52 70.632C29.3667 70.0603 29.3827 69.4607 29.5662 68.8968C29.7508 68.3397 30.0149 67.8081 30.3513 67.3162C30.4769 67.1255 30.5822 66.9726 30.6561 66.8713C30.6912 66.8158 30.7334 66.7644 30.7817 66.7184Z" fill="#EBEBEB"/>
<path d="M24.8405 72.5525C24.8405 72.5525 24.859 72.5284 24.8978 72.4889L25.0825 72.3171L25.7457 71.7021C26.3 71.1868 27.0759 70.4635 27.9146 69.6595C28.7533 68.8556 29.5015 68.1134 30.0409 67.5792L30.682 66.9435L30.8667 66.7718C30.9074 66.734 30.9295 66.7151 30.9332 66.7168C30.9184 66.7411 30.9004 66.7636 30.8797 66.7838L30.7171 66.9659C30.573 67.1222 30.3624 67.3455 30.0982 67.6204C29.5606 68.1701 28.8217 68.9105 27.9755 69.7231C27.1294 70.5357 26.3572 71.2417 25.7845 71.7485C25.4982 72.0028 25.2654 72.2055 25.101 72.3429L24.9163 72.501C24.8937 72.5213 24.8682 72.5387 24.8405 72.5525Z" fill="#EBEBEB"/>
<path d="M28.8512 68.3247C28.3389 68.6259 27.7568 68.8091 27.1531 68.8593C26.5494 68.9095 25.9416 68.8252 25.3799 68.6133C25.0954 68.5033 24.7887 68.3058 24.7906 68.0207C24.7924 67.7355 25.1047 67.5397 25.3929 67.4383C25.9998 67.2373 26.6573 67.2081 27.2822 67.3546C27.907 67.501 28.471 67.8165 28.9029 68.2611" fill="#E0E0E0"/>
<path d="M26.165 68.1649C26.165 68.1478 26.4385 68.2354 26.8892 68.2886C27.1522 68.3178 27.4174 68.3253 27.6818 68.3109C28.0053 68.2912 28.3259 68.2411 28.6387 68.1615C28.9501 68.0751 29.2515 67.96 29.5384 67.818C29.7731 67.7029 29.9957 67.5678 30.2035 67.4144C30.5582 67.1516 30.7374 66.9472 30.7577 66.9592C30.7229 67.012 30.6827 67.0614 30.6376 67.1069C30.5885 67.1634 30.5354 67.2167 30.4787 67.2667C30.4072 67.3366 30.3314 67.4026 30.2515 67.4642C30.0454 67.6266 29.8226 67.7698 29.5864 67.8919C29.2924 68.0363 28.9828 68.1514 28.6627 68.2354C28.3429 68.3165 28.0147 68.3655 27.6836 68.3813C27.4142 68.3932 27.1443 68.3788 26.8781 68.3384C26.7754 68.3252 26.6736 68.3062 26.5733 68.2817C26.4967 68.2668 26.4214 68.2467 26.3479 68.2216C26.2849 68.2091 26.2236 68.1901 26.165 68.1649Z" fill="#EBEBEB"/>
<path d="M63.0091 52.0094C63.5799 51.2227 63.3568 50.1547 62.5108 49.624C61.6648 49.0932 60.5162 49.3007 59.9454 50.0873C59.3746 50.874 59.5977 51.9419 60.4437 52.4727C61.2897 53.0035 62.4383 52.796 63.0091 52.0094Z" fill="#EBEBEB"/>
<path d="M68.4336 47.8611C68.4336 48.2009 68.3253 48.5331 68.1223 48.8156C67.9193 49.0981 67.6308 49.3183 67.2932 49.4483C66.9556 49.5784 66.5842 49.6124 66.2258 49.5461C65.8675 49.4798 65.5383 49.3162 65.2799 49.0759C65.0216 48.8357 64.8456 48.5296 64.7743 48.1963C64.703 47.863 64.7396 47.5176 64.8795 47.2037C65.0193 46.8898 65.2561 46.6215 65.5599 46.4327C65.8637 46.2439 66.2208 46.1432 66.5862 46.1432C67.0762 46.1432 67.5461 46.3242 67.8925 46.6464C68.239 46.9685 68.4336 47.4055 68.4336 47.8611Z" fill="#EBEBEB"/>
<path d="M68.4428 55.1399C68.4428 56.1707 67.6188 57.009 66.5954 57.009C65.5719 57.009 64.748 56.1758 64.748 55.1434C64.748 54.1109 65.5849 53.2777 66.5935 53.2777C67.6022 53.2777 68.4428 54.1075 68.4428 55.1399Z" fill="#EBEBEB"/>
<path d="M66.0523 54.9218C65.9729 55.03 64.7462 54.3806 63.3089 53.4736C61.8717 52.5665 60.7743 51.7418 60.8519 51.6336C60.9295 51.5254 62.1599 52.1748 63.5953 53.0819C65.0307 53.9889 66.1391 54.8136 66.0523 54.9218Z" fill="#EBEBEB"/>
<path d="M66.2 47.7444C66.285 47.8474 65.3373 48.6652 64.0829 49.5688C62.8285 50.4724 61.7385 51.1149 61.6536 51.0204C61.5686 50.926 62.5144 50.0996 63.7707 49.196C65.0269 48.2924 66.1132 47.6413 66.2 47.7444Z" fill="#EBEBEB"/>
<path d="M55.9429 31.2888C55.9912 31.6304 56.0072 31.9753 55.9907 32.3195C56.0073 32.6636 55.9913 33.0085 55.9429 33.3501C55.8957 33.0084 55.8797 32.6636 55.8952 32.3195C55.8798 31.9753 55.8958 31.6305 55.9429 31.2888Z" fill="#E0E0E0"/>
<path d="M55.9429 27.1658C55.9912 27.5074 56.0072 27.8523 55.9907 28.1965C56.0073 28.5407 55.9913 28.8856 55.9429 29.2272C55.8957 28.8855 55.8797 28.5407 55.8952 28.1965C55.8798 27.8523 55.8958 27.5074 55.9429 27.1658Z" fill="#E0E0E0"/>
<path d="M55.9429 23.0428C55.9912 23.3845 56.0072 23.7294 55.9907 24.0736C56.0073 24.4178 55.9913 24.7628 55.9429 25.1044C55.8957 24.7627 55.8797 24.4178 55.8952 24.0736C55.8798 23.7294 55.8958 23.3845 55.9429 23.0428Z" fill="#E0E0E0"/>
<path d="M55.9429 18.92C55.9912 19.2617 56.0072 19.6066 55.9907 19.9508C56.0073 20.295 55.9913 20.64 55.9429 20.9816C55.8957 20.6399 55.8797 20.295 55.8952 19.9508C55.8798 19.6066 55.8958 19.2617 55.9429 18.92Z" fill="#E0E0E0"/>
<path d="M55.9429 14.7971C55.9912 15.1387 56.0072 15.4837 55.9907 15.8279C56.0073 16.1722 55.9913 16.5171 55.9429 16.8588C55.8957 16.5171 55.8797 16.1722 55.8952 15.8279C55.8798 15.4837 55.8958 15.1388 55.9429 14.7971Z" fill="#E0E0E0"/>
<path d="M54.6852 11.8509C55.0527 11.8068 55.4235 11.7918 55.7937 11.8062H55.9951V11.8492C56.0079 12.1463 55.9919 12.4438 55.947 12.7382C55.9022 12.4438 55.8861 12.1463 55.899 11.8492L55.947 11.8939H55.7937C55.4236 11.9099 55.0526 11.8955 54.6852 11.8509Z" fill="#E0E0E0"/>
<path d="M50.2515 11.8508C50.989 11.7913 51.7308 11.7913 52.4684 11.8508C51.7308 11.9104 50.989 11.9104 50.2515 11.8508Z" fill="#E0E0E0"/>
<path d="M48.3205 9.52136C48.3677 9.86306 48.3837 10.2079 48.3683 10.5521C48.3837 10.8964 48.3677 11.2412 48.3205 11.5829C48.2722 11.2413 48.2563 10.8964 48.2728 10.5521C48.2563 10.2079 48.2722 9.86297 48.3205 9.52136Z" fill="#E0E0E0"/>
<path d="M48.3206 6.2074C48.3677 6.41216 48.3837 6.6221 48.3683 6.83105C48.3835 7.04001 48.3674 7.24992 48.3206 7.45471C48.2726 7.25007 48.2566 7.04001 48.2728 6.83105C48.2564 6.6221 48.2725 6.41202 48.3206 6.2074Z" fill="#E0E0E0"/>
<path d="M21.5798 52.9771C21.9463 52.9152 22.3218 52.9152 22.6882 52.9771C22.3216 53.0366 21.9465 53.0366 21.5798 52.9771Z" fill="#E0E0E0"/>
<path d="M16.7471 52.9771C17.1477 52.9307 17.5518 52.9152 17.9553 52.9308C18.3587 52.9153 18.7628 52.9308 19.1635 52.9771C18.7626 53.0212 18.3586 53.0362 17.9553 53.0217C17.5519 53.0362 17.1479 53.0213 16.7471 52.9771Z" fill="#E0E0E0"/>
<path d="M11.9124 52.9772C12.3125 52.9321 12.716 52.9177 13.1187 52.9342C13.5221 52.9188 13.9262 52.9343 14.3269 52.9806C13.9261 53.0248 13.5221 53.0398 13.1187 53.0253C12.7159 53.0385 12.3125 53.0224 11.9124 52.9772Z" fill="#E0E0E0"/>
<path d="M8.38751 51.9464C8.43619 52.2883 8.45226 52.6335 8.43555 52.978L8.38751 52.9333H8.61105H8.8198L9.1708 52.9419C9.28035 52.9369 9.39007 52.9479 9.49594 52.9745C9.38965 52.9989 9.2802 53.0094 9.1708 53.0055L8.8198 53.0158H8.38751C8.43 53.0553 8.3284 52.9608 8.33948 52.9694C8.32437 52.6277 8.34044 52.2855 8.38751 51.9464Z" fill="#E0E0E0"/>
<path d="M8.38758 47.9524C8.45164 48.617 8.45164 49.2856 8.38758 49.9502C8.32352 49.2856 8.32352 48.617 8.38758 47.9524Z" fill="#E0E0E0"/>
<path d="M8.38758 43.953C8.45164 44.6177 8.45164 45.2864 8.38758 45.951C8.32352 45.2864 8.32352 44.6177 8.38758 43.953Z" fill="#E0E0E0"/>
<path d="M8.38756 40.9226C8.45158 41.2639 8.45158 41.613 8.38756 41.9543C8.32353 41.613 8.32353 41.2639 8.38756 40.9226Z" fill="#E0E0E0"/>
<path d="M16.7896 39.7339C16.9071 39.3917 16.911 39.0246 16.8005 38.6804C16.6901 38.3362 16.4706 38.031 16.1707 37.8047C15.8619 37.5856 15.4874 37.4614 15.0992 37.4491C14.8081 37.4397 14.5257 37.3541 14.2845 37.2022C14.0433 37.0503 13.8532 36.8381 13.7358 36.5902C13.5062 36.0778 13.1296 35.634 12.6471 35.3072C12.1646 34.9803 11.5948 34.7831 10.9999 34.737C10.4051 34.6909 9.80804 34.7977 9.27404 35.0458C8.74003 35.2938 8.2896 35.6736 7.97195 36.1435C7.76504 36.4476 7.60247 36.8015 7.2607 36.9784C6.83026 37.2017 6.30006 37.0506 5.81049 37.0214C4.3529 36.9355 2.97289 38.3819 3.04863 39.7373L16.7896 39.7339Z" fill="#F5F5F5"/>
<path d="M54.4174 6.20762C54.5354 5.86569 54.5396 5.49858 54.4295 5.15437C54.3194 4.81015 54.1001 4.50487 53.8003 4.27848C53.491 4.05888 53.1159 3.93403 52.727 3.92117C52.4359 3.91159 52.1536 3.82593 51.9125 3.67401C51.6713 3.5221 51.4811 3.31008 51.3636 3.06225C51.1338 2.55 50.757 2.10632 50.2744 1.77968C49.7918 1.45305 49.222 1.25601 48.6271 1.21009C48.0323 1.16417 47.4353 1.27114 46.9014 1.51932C46.3675 1.76749 45.9172 2.14733 45.5997 2.61733C45.3928 2.91967 45.2302 3.27526 44.8885 3.45048C44.4599 3.6738 43.9297 3.52263 43.4383 3.49515C41.9807 3.40926 40.6007 4.85568 40.6672 6.21106L54.4174 6.20762Z" fill="#F5F5F5"/>
<path d="M75.885 37.0694C80.7043 32.588 80.7043 25.3221 75.885 20.8406C71.0657 16.3591 63.252 16.3591 58.4327 20.8406C53.6134 25.3221 53.6134 32.588 58.4327 37.0694C63.252 41.5509 71.0657 41.5509 75.885 37.0694Z" fill="#E0E0E0"/>
<path d="M51.9142 59.3092C51.6223 66.21 46.1558 71.922 38.7293 72.056C35.1631 72.1204 31.7155 70.8649 29.1448 68.5656C26.5741 66.2663 25.0909 63.1115 25.0216 59.7954C24.8775 52.8894 30.8002 46.5177 38.2065 47.0486C46.1022 47.6086 52.1783 53.0114 51.9142 59.3092Z" fill="#E0E0E0"/>
<path d="M26.6918 26.3082C31.6056 21.7389 31.6056 14.3305 26.6918 9.76111C21.778 5.19175 13.8111 5.19175 8.89726 9.76111C3.98344 14.3305 3.98344 21.7389 8.89726 26.3082C13.8111 30.8776 21.778 30.8776 26.6918 26.3082Z" fill="#E0E0E0"/>
<path d="M65.5664 31.6598C65.7622 31.8316 60.9941 36.9303 54.918 43.0563C48.8419 49.1823 43.756 54.0147 43.5602 53.8463C43.3644 53.678 48.1325 48.5776 54.2105 42.4498C60.2884 36.3221 65.3706 31.4914 65.5664 31.6598Z" fill="#E0E0E0"/>
<path d="M63.0373 23.3383C62.98 23.5805 54.5781 22.0843 44.2714 19.9988C33.9648 17.9133 25.6533 16.0271 25.7088 15.7867C25.7642 15.5462 34.1662 17.039 44.4765 19.1261C54.7868 21.2133 63.0946 23.0978 63.0373 23.3383Z" fill="#E0E0E0"/>
<path d="M32.4056 51.6044C32.2947 51.668 30.9886 49.9295 29.0101 47.04C27.0315 44.1505 24.3879 40.1049 21.6168 35.5628C18.8457 31.0207 16.4441 26.8411 14.7814 23.7833C13.1187 20.7255 12.1729 18.7946 12.2874 18.7482C12.4019 18.7018 13.5621 20.5159 15.3726 23.4947C17.183 26.4735 19.6825 30.5861 22.4444 35.1299L29.592 46.7222C31.4191 49.6821 32.5164 51.5374 32.4056 51.6044Z" fill="#E0E0E0"/>
<path d="M71.7922 13.1359C71.855 14.1168 71.9289 14.414 72.3187 15.1973C72.5515 15.6611 72.8729 16.0906 73.0059 16.5871C73.1389 17.0835 73.0632 17.5594 73.1556 18.0369C73.3089 18.8168 73.865 19.4662 74.2843 20.1568C74.7037 20.8474 74.9826 21.7235 74.5688 22.4158L70.2939 21.9468L69.9928 17.0131L71.7922 13.1359Z" fill="#263238"/>
<path d="M63.2941 11.4628C62.7399 12.5553 63.5103 13.6462 62.956 14.737C62.6616 15.2694 62.4282 15.8291 62.2596 16.4068C62.1284 16.9222 62.1007 17.4839 61.8716 17.9787C61.5021 18.7672 60.6727 19.2997 60.2865 20.0796C59.7157 21.2358 60.3235 22.6839 61.4135 23.4518C62.5034 24.2197 63.9555 24.4087 65.3207 24.3211C66.1465 24.2661 66.9834 24.1132 67.6983 23.7181C68.4132 23.323 68.9804 22.653 69.0709 21.8868" fill="#263238"/>
<path d="M69.6325 9.51978C72.3814 10.6536 72.9283 14.8538 72.943 15.4207C72.9597 16.0941 73.3458 16.2349 73.8279 16.5871C74.3101 16.9393 74.7775 17.367 74.9105 17.915C75.0158 18.3462 74.9105 18.8221 75.1267 19.2155C75.3908 19.6844 76.019 19.8579 76.5048 20.1483C77.4285 20.6963 77.8793 21.727 77.9292 22.7251C77.979 23.7232 77.6872 24.6989 77.3953 25.6575C77.2789 26.0389 77.1366 26.4546 76.7653 26.6624C76.479 26.8222 76.1206 26.8205 75.7843 26.8136L70.5599 26.7054C69.2279 26.6779 67.8608 26.6436 66.6305 26.19C65.6244 25.8237 64.7759 25.1596 64.2159 24.3004C63.9447 23.8781 63.7665 23.4099 63.6917 22.923C63.6168 22.4361 63.6468 21.9402 63.7799 21.4642C63.9979 20.7358 64.4727 20.0778 64.6113 19.334C64.7812 18.4115 63.9499 18.0181 63.6488 17.1231C63.3476 16.2281 63.0946 14.0859 63.5102 13.2287" fill="#263238"/>
<path d="M72.775 32.6804L71.916 30.1207L71.7922 34.0375C71.7922 34.0375 72.9006 36.7088 73.7541 38.7497C71.7857 39.8404 69.5401 40.4231 67.2488 40.4379C64.9575 40.4527 62.7034 39.899 60.7189 38.8339L62.0416 34.4137L61.4117 29.3992L59.6733 31.7269L55.9507 28.3804C55.9507 28.3804 58.6757 23.6991 59.0137 23.2714C61.1696 20.5468 64.8903 20.6121 64.8903 20.6121L70.1572 20.8835C70.1572 20.8835 73.1131 20.7306 75.0639 22.9089C75.0639 22.9089 76.9649 25.6077 78.526 32.2663L72.775 32.6804Z" fill="#407BFF"/>
<path d="M75.4093 23.6408C75.3845 23.6465 75.3591 23.6506 75.3336 23.6528C75.2819 23.6528 75.2061 23.6631 75.1082 23.6803C74.8196 23.723 74.5374 23.7974 74.2677 23.9019C73.8426 24.0688 73.4539 24.3063 73.1204 24.6028C72.9093 24.7866 72.7232 24.9937 72.5662 25.2195C72.385 25.4675 72.2553 25.7449 72.1838 26.0372C72.1505 26.1933 72.1562 26.3543 72.2004 26.508C72.2526 26.6658 72.359 26.8034 72.5034 26.8996C72.5756 26.9501 72.66 26.9833 72.7492 26.9965C72.8384 27.0096 72.9297 27.0023 73.0151 26.9752C73.1015 26.9399 73.1781 26.8869 73.2395 26.8203C73.3009 26.7537 73.3455 26.6752 73.3698 26.5904C73.4294 26.4139 73.4148 26.2231 73.3292 26.0561C73.236 25.8838 73.0983 25.7356 72.9283 25.6249C72.5684 25.3877 72.1481 25.2421 71.709 25.2023C71.2448 25.1601 70.7762 25.1985 70.3272 25.3157C69.8547 25.427 69.4018 25.6005 68.9823 25.8311C68.5491 26.0739 68.1723 26.3945 67.8738 26.7742C67.7205 26.9634 67.6282 27.1892 67.6078 27.4253C67.6041 27.5414 67.6368 27.6561 67.702 27.7552C67.7712 27.8547 67.8633 27.9386 67.9717 28.0008H67.9625C68.0793 28.0485 68.211 28.054 68.332 28.0163C68.4525 27.9617 68.5477 27.8683 68.5998 27.7534C68.7126 27.506 68.7656 27.2386 68.755 26.9701C68.7603 26.704 68.714 26.4392 68.6183 26.1884C68.5161 25.9431 68.3557 25.7223 68.1491 25.5425C67.7435 25.1896 67.224 24.971 66.6712 24.9206C66.1339 24.8786 65.5931 24.937 65.0805 25.0924C64.5799 25.2367 64.0793 25.4257 63.7578 25.7796C63.6752 25.8592 63.6114 25.954 63.5706 26.0579C63.5298 26.1618 63.5128 26.2725 63.5208 26.3829C63.5288 26.4933 63.5616 26.6009 63.6171 26.6988C63.6725 26.7966 63.7494 26.8826 63.8428 26.9512C63.929 27.0183 64.0342 27.0606 64.1458 27.0731C64.2546 27.0842 64.3643 27.0599 64.4561 27.0044C64.5442 26.945 64.6166 26.8677 64.6679 26.7785C64.7191 26.6892 64.7477 26.5902 64.7517 26.4891C64.77 26.2873 64.7455 26.0842 64.6797 25.8912C64.6464 25.7967 64.6021 25.7057 64.5651 25.6129C64.5448 25.5683 64.5282 25.5202 64.5042 25.4772L64.4303 25.3484C64.2433 25.0199 64.002 24.7208 63.7153 24.4619C63.2197 24.0144 62.6188 23.6803 61.9603 23.4862C61.4648 23.336 60.9437 23.272 60.4233 23.2972C60.0941 23.3163 59.7689 23.3741 59.4552 23.469L59.2132 23.5497L59.1282 23.5738L59.2095 23.5411L59.4478 23.4518C59.7616 23.3505 60.0883 23.2881 60.4196 23.2663C60.9456 23.2339 61.4736 23.2921 61.9769 23.4381C62.6457 23.6307 63.2568 23.966 63.7615 24.4173C64.0585 24.6775 64.3081 24.981 64.5005 25.3157L64.5781 25.4463C64.6021 25.491 64.6187 25.5391 64.639 25.5854C64.6797 25.6799 64.724 25.7727 64.7591 25.8706C64.8286 26.0723 64.855 26.2848 64.8367 26.4959C64.8329 26.6093 64.8011 26.7203 64.7438 26.8204C64.6864 26.9205 64.6051 27.007 64.506 27.0731C64.3964 27.1386 64.266 27.1671 64.1365 27.1539C64.0095 27.1402 63.8895 27.0924 63.7911 27.0165C63.5902 26.8635 63.4621 26.6432 63.4345 26.4032C63.4205 26.2811 63.4396 26.1576 63.4899 26.0441C63.5386 25.9309 63.6059 25.8254 63.6895 25.7315C64.0312 25.3518 64.5467 25.1594 65.0528 25.0134C65.5772 24.854 66.131 24.7955 66.6804 24.8416C67.2566 24.8916 67.7985 25.1182 68.2211 25.4858C68.437 25.6746 68.6049 25.9058 68.7125 26.1627C68.8129 26.4238 68.8617 26.6997 68.8566 26.9769C68.8673 27.2591 68.8112 27.54 68.6922 27.7998C68.6296 27.9347 68.5158 28.0435 68.3726 28.1056C68.2271 28.1537 68.0674 28.1488 67.9255 28.0919C67.8046 28.0234 67.7022 27.9299 67.6263 27.8187C67.5511 27.706 67.5138 27.575 67.5191 27.4425C67.5392 27.1885 67.6373 26.9452 67.8018 26.7416C68.1096 26.3524 68.4977 26.0242 68.9435 25.7761C69.3714 25.5395 69.8336 25.3613 70.3161 25.247C70.7755 25.128 71.2548 25.0895 71.7293 25.1336C72.1827 25.1758 72.6164 25.3274 72.9874 25.5734C73.1674 25.6925 73.3128 25.8513 73.4105 26.0355C73.5051 26.2191 73.5203 26.4294 73.453 26.6231C73.4249 26.7175 73.3743 26.8049 73.3049 26.8787C73.2355 26.9525 73.1491 27.0107 73.0521 27.0491C72.9556 27.0806 72.8522 27.0892 72.7513 27.0742C72.6503 27.0592 72.555 27.0211 72.4738 26.9632C72.3176 26.8583 72.2027 26.7087 72.1468 26.5372C72.0997 26.3739 72.0946 26.2026 72.1321 26.0372C72.206 25.7377 72.3401 25.4538 72.5274 25.2006C72.6877 24.973 72.8769 24.7642 73.0909 24.5787C73.4316 24.2817 73.8279 24.0453 74.2603 23.8813C74.5316 23.7783 74.8159 23.7079 75.1064 23.6717C75.2066 23.6559 75.3078 23.6456 75.4093 23.6408Z" fill="#FAFAFA"/>
<path d="M77.6411 29.2377C77.4771 29.3003 77.3173 29.372 77.1626 29.4524C76.7505 29.6869 76.422 30.0293 76.2185 30.4368C76.1522 30.5705 76.1014 30.7104 76.0671 30.8542C76.0217 31.0053 76.0217 31.1652 76.0671 31.3163C76.0877 31.3917 76.1353 31.4583 76.2019 31.5053C76.2358 31.5264 76.2746 31.5397 76.3151 31.5438C76.3557 31.548 76.3967 31.5431 76.4347 31.5293C76.5157 31.4897 76.5841 31.4312 76.6334 31.3595C76.6826 31.2878 76.7109 31.2054 76.7155 31.1205C76.7345 30.9317 76.6918 30.7419 76.5929 30.5761C76.494 30.4103 76.3436 30.2761 76.1613 30.1911C75.9595 30.1084 75.7383 30.0752 75.5187 30.0944C75.2992 30.1136 75.0885 30.1848 74.9069 30.301C74.5421 30.5453 74.2885 30.9073 74.1956 31.3163C74.1356 31.501 74.1534 31.7 74.2455 31.8729C74.2878 31.951 74.3598 32.0119 74.4474 32.0436C74.5351 32.0753 74.6323 32.0757 74.7203 32.0447C74.802 32.007 74.8706 31.9486 74.9183 31.8763C74.966 31.804 74.9909 31.7207 74.99 31.6358C74.9851 31.4685 74.9294 31.3059 74.8293 31.1669C74.6542 30.9073 74.3909 30.7096 74.0811 30.6051C73.8254 30.5182 73.548 30.5027 73.283 30.5604C73.0827 30.6051 72.8942 30.6869 72.7288 30.8009C72.5895 30.8994 72.4652 31.015 72.3593 31.1445C72.3637 31.1343 72.3693 31.1245 72.3759 31.1153C72.3918 31.0869 72.4103 31.0599 72.4314 31.0346C72.5079 30.9327 72.6007 30.8423 72.7066 30.7666C72.8729 30.6432 73.0657 30.5541 73.2719 30.5055C73.547 30.4387 73.8374 30.4507 74.1051 30.5398C74.4328 30.6444 74.7129 30.849 74.8995 31.1205C75.0103 31.2729 75.0713 31.4519 75.075 31.6358C75.0771 31.7361 75.0483 31.8348 74.992 31.9204C74.9357 32.0059 74.8542 32.0747 74.7572 32.1186C74.7046 32.1402 74.6476 32.1514 74.5901 32.1514C74.5325 32.1514 74.4755 32.1402 74.4229 32.1186C74.3168 32.0761 74.2281 32.0033 74.1698 31.9107C74.0632 31.7194 74.04 31.4973 74.1051 31.2905C74.2021 30.859 74.4698 30.477 74.8552 30.2203C75.0506 30.0946 75.2777 30.0181 75.5143 29.9982C75.751 29.9784 75.9891 30.0158 76.2056 30.1069C76.4053 30.1998 76.5701 30.3466 76.6786 30.528C76.787 30.7095 76.834 30.9172 76.8134 31.1239C76.8063 31.2235 76.7712 31.3195 76.7115 31.4024C76.6518 31.4854 76.5697 31.5522 76.4735 31.5963C76.4225 31.614 76.3676 31.62 76.3135 31.6137C76.2595 31.6074 76.2079 31.5891 76.1631 31.5603C76.083 31.5024 76.0258 31.4214 76.0006 31.3301C75.9505 31.1672 75.9505 30.9947 76.0006 30.8319C76.0374 30.6841 76.0919 30.5406 76.1631 30.4041C76.3747 29.9882 76.7192 29.6432 77.1496 29.4163C77.3021 29.3326 77.468 29.2723 77.6411 29.2377Z" fill="#FAFAFA"/>
<path d="M71.8125 31.7097C71.7972 31.7116 71.7816 31.7116 71.7663 31.7097L71.6352 31.6805C71.4666 31.6435 71.2957 31.6165 71.1234 31.5998C70.4889 31.5375 69.8477 31.6207 69.2557 31.842C69.063 31.915 68.8776 32.0035 68.7015 32.1066C68.5085 32.2144 68.3423 32.359 68.2138 32.5309C68.1461 32.6201 68.1022 32.7231 68.0858 32.8313C68.0694 32.9394 68.081 33.0496 68.1196 33.1528C68.158 33.2589 68.2302 33.3518 68.3265 33.4191C68.3751 33.452 68.4307 33.4752 68.4895 33.487C68.5484 33.4988 68.6093 33.4991 68.6682 33.4878C68.7926 33.4569 68.9043 33.3921 68.9889 33.3018C69.0735 33.2116 69.1271 33.0998 69.143 32.981C69.1645 32.7238 69.0895 32.4676 68.9306 32.256C68.6041 31.7923 68.1013 31.4604 67.5228 31.3266C66.942 31.1982 66.3303 31.2838 65.8159 31.5654C65.5725 31.694 65.359 31.8663 65.1877 32.0722C65.1104 32.176 65.0552 32.2927 65.0252 32.4158C64.9894 32.5298 64.9999 32.6521 65.0547 32.7594C65.0838 32.8068 65.1246 32.8472 65.1737 32.8771C65.2229 32.9069 65.279 32.9255 65.3374 32.9312C65.4568 32.9377 65.575 32.9055 65.6718 32.8401C65.7649 32.7753 65.8373 32.6881 65.8813 32.588C65.9252 32.4878 65.939 32.3784 65.9212 32.2715C65.896 32.0636 65.8229 31.8632 65.7069 31.684C65.6018 31.5161 65.4718 31.3629 65.3208 31.2287C65.0567 30.9967 64.7415 30.8209 64.3971 30.7133C64.1379 30.6312 63.8653 30.5917 63.5916 30.5965C63.3587 30.6035 63.1278 30.6382 62.9044 30.6996C62.9044 30.6996 62.9173 30.6996 62.9469 30.6824L63.0743 30.6395C63.2427 30.5941 63.4164 30.5681 63.5916 30.5622C63.87 30.5504 64.1485 30.5853 64.4137 30.6652C64.7662 30.7707 65.0897 30.9466 65.3614 31.1806C65.5189 31.3133 65.6563 31.4653 65.7697 31.6324C65.893 31.8196 65.9712 32.0294 65.9987 32.2474C66.0119 32.3634 65.998 32.4805 65.9581 32.591C65.914 32.7094 65.8305 32.8117 65.7198 32.8831C65.6059 32.9587 65.4679 32.9963 65.3281 32.9896C65.2547 32.9834 65.184 32.9604 65.1225 32.9226C65.0609 32.8848 65.0103 32.8335 64.9753 32.7731C64.9097 32.65 64.8952 32.5087 64.9346 32.3763C64.9677 32.2451 65.0272 32.1209 65.1101 32.0104C65.288 31.7926 65.5118 31.6108 65.7678 31.4761C66.3023 31.1815 66.9391 31.0922 67.5432 31.227C68.1461 31.3653 68.6698 31.7117 69.0082 32.1959C69.1786 32.4249 69.2582 32.7018 69.2335 32.9793C69.2138 33.1158 69.1505 33.2437 69.0516 33.3463C68.9528 33.4489 68.8231 33.5216 68.6793 33.5548C68.6084 33.5681 68.5353 33.5675 68.4647 33.553C68.3941 33.5385 68.3275 33.5104 68.2692 33.4706C68.1585 33.3937 68.0759 33.2869 68.0327 33.1648C67.9892 33.0485 67.9771 32.924 67.9976 32.8023C68.0203 32.6856 68.0687 32.5744 68.1399 32.4759C68.2757 32.2962 68.4515 32.1456 68.6553 32.0344C68.838 31.9305 69.0303 31.842 69.2298 31.7699C69.8328 31.551 70.4855 31.4778 71.1271 31.5568C71.3619 31.5792 71.5924 31.6307 71.8125 31.7097Z" fill="#FAFAFA"/>
<path d="M51.1752 17.3911C51.5576 17.4083 51.4486 19.3512 51.7294 18.9372C52.0102 18.5232 51.5668 16.5545 51.9659 16.5888C52.4868 16.6352 52.3353 18.6658 52.3353 18.8393C52.3353 19.0128 52.6032 19.011 52.594 18.8547C52.581 18.6314 52.4998 16.2779 53.0115 16.3174C53.296 16.3397 53.1962 16.8121 53.1962 16.8121C53.1962 16.8121 53.0965 19.0231 53.3385 19.0334C53.5805 19.0437 53.6913 17.7484 53.6932 17.3155C53.695 16.8826 53.9186 16.7022 54.1236 16.8568C54.264 16.9633 54.2917 18.3067 54.2788 18.7465C54.2659 19.1863 54.2068 20.3716 54.748 19.7944C55.2893 19.2172 55.9359 18.9578 56.1595 18.999C56.383 19.0403 56.3959 19.3426 56.1595 19.4457C55.92 19.5776 55.7007 19.7388 55.5073 19.925C55.3548 20.0761 55.2209 20.2426 55.1083 20.4214C54.9783 20.611 54.8816 20.8186 54.8219 21.0364L55.5498 29.1363L56.0837 28.5162L59.1264 31.2528L57.5376 32.9518C56.3756 34.1973 54.2696 34.2763 53.0872 33.048C53.0447 33.0033 53.0022 32.9569 52.9635 32.9088C52.6743 32.5526 52.5029 32.1258 52.4702 31.6805L51.4652 21.1808H51.456C51.4338 20.0143 51.0865 19.1193 51.0329 18.5249C50.9258 17.3962 51.0329 17.3842 51.1752 17.3911Z" fill="#FFBE9D"/>
<path d="M65.2449 21.7183C65.256 20.4969 65.2449 19.212 65.2449 19.212C65.2449 19.212 63.5564 18.932 63.2331 16.8757C62.9228 14.9139 63.4474 10.6914 63.4474 10.6914C65.8952 9.7947 68.6497 10.1417 70.3622 11.9712L70.0962 21.8901C70.0648 23.0411 68.9767 23.9327 67.6503 23.8931C66.3109 23.8571 65.2339 22.8813 65.2449 21.7183Z" fill="#FFBE9D"/>
<path d="M63.9056 13.9384C63.9041 14.0072 63.9314 14.0739 63.9817 14.1243C64.0321 14.1747 64.1015 14.2049 64.1754 14.2085C64.2114 14.2113 64.2477 14.2074 64.2822 14.197C64.3166 14.1867 64.3485 14.1701 64.376 14.1481C64.4035 14.1262 64.4261 14.0994 64.4424 14.0693C64.4587 14.0392 64.4684 14.0064 64.4709 13.9728C64.4725 13.9041 64.4451 13.8377 64.3947 13.7875C64.3443 13.7374 64.2749 13.7076 64.2012 13.7045C64.1652 13.7012 64.1288 13.7046 64.0943 13.7147C64.0597 13.7248 64.0277 13.7412 64.0001 13.763C63.9725 13.7849 63.95 13.8116 63.9337 13.8418C63.9175 13.8719 63.9079 13.9048 63.9056 13.9384Z" fill="#263238"/>
<path d="M63.4512 13.636C63.4845 13.6704 63.7025 13.5243 64.0054 13.5294C64.3084 13.5346 64.5319 13.6772 64.5596 13.6429C64.5873 13.6085 64.5412 13.5655 64.4451 13.4985C64.3147 13.4117 64.1584 13.3649 63.998 13.3645C63.8392 13.362 63.6837 13.4072 63.5547 13.4934C63.466 13.5587 63.4327 13.6205 63.4512 13.636Z" fill="#263238"/>
<path d="M67.024 14.0192C67.022 14.0879 67.0492 14.1546 67.0996 14.2048C67.1501 14.255 67.2198 14.2847 67.2937 14.2874C67.3296 14.2907 67.3659 14.2872 67.4003 14.2771C67.4348 14.267 67.4667 14.2506 67.4941 14.2287C67.5215 14.2069 67.5439 14.1801 67.56 14.15C67.576 14.1199 67.5853 14.0871 67.5874 14.0536C67.5894 13.9849 67.5625 13.9183 67.5125 13.8679C67.4625 13.8174 67.3932 13.7872 67.3195 13.7836C67.2834 13.7806 67.247 13.7843 67.2125 13.7945C67.1779 13.8048 67.1459 13.8214 67.1183 13.8434C67.0908 13.8653 67.0683 13.8922 67.052 13.9224C67.0358 13.9526 67.0263 13.9855 67.024 14.0192Z" fill="#263238"/>
<path d="M66.6286 13.7666C66.6619 13.801 66.8799 13.6549 67.1829 13.66C67.4858 13.6652 67.7094 13.8078 67.7371 13.7735C67.7648 13.7391 67.7186 13.6961 67.6225 13.6291C67.4919 13.5426 67.3358 13.4958 67.1755 13.495C67.0168 13.492 66.8614 13.5366 66.7321 13.6222C66.6434 13.6961 66.6102 13.7666 66.6286 13.7666Z" fill="#263238"/>
<path d="M65.4961 15.8622C65.3367 15.8121 65.1709 15.7821 65.0029 15.7728C64.9253 15.7643 64.8514 15.7505 64.8385 15.7007C64.8337 15.6256 64.8529 15.5509 64.8939 15.486C64.9678 15.3142 65.0472 15.1287 65.1304 14.938C65.4592 14.1581 65.6993 13.5156 65.6642 13.5036C65.6291 13.4916 65.3373 14.1134 65.0066 14.895L64.7794 15.4465C64.7302 15.5335 64.7151 15.6337 64.7369 15.7299C64.7471 15.7557 64.7639 15.7789 64.7857 15.7974C64.8076 15.8159 64.8339 15.8293 64.8625 15.8364C64.905 15.8485 64.9492 15.8549 64.9936 15.8553C65.1602 15.8767 65.329 15.879 65.4961 15.8622Z" fill="#263238"/>
<path d="M65.2432 19.2125C66.283 19.2383 67.3101 18.9948 68.2101 18.5093C68.2101 18.5093 67.4711 19.914 65.2672 19.6974L65.2432 19.2125Z" fill="#EB996E"/>
<path d="M65.6163 16.5459C65.6756 16.4789 65.752 16.427 65.8385 16.3948C65.9251 16.3626 66.0189 16.3513 66.1114 16.3619C66.1782 16.3675 66.243 16.3856 66.3021 16.4151C66.3612 16.4447 66.4132 16.4851 66.455 16.5338C66.4966 16.582 66.5209 16.6411 66.5245 16.7028C66.5282 16.7645 66.511 16.8257 66.4753 16.8778C66.4256 16.9281 66.3609 16.9635 66.2895 16.9794C66.2181 16.9953 66.1433 16.9911 66.0745 16.9673C65.9311 16.9189 65.7998 16.844 65.6884 16.7471C65.6545 16.7238 65.6251 16.6953 65.6015 16.6628C65.5902 16.647 65.5842 16.6285 65.5842 16.6095C65.5842 16.5906 65.5902 16.572 65.6015 16.5562" fill="#EB996E"/>
<path d="M66.3903 16.0667C66.3405 16.0667 66.3368 16.371 66.0504 16.5825C65.7641 16.7939 65.4131 16.7544 65.4094 16.8025C65.4057 16.8507 65.487 16.8627 65.6366 16.8679C65.8309 16.8718 66.0203 16.8108 66.1705 16.6959C66.3164 16.5888 66.4113 16.4326 66.4347 16.261C66.4495 16.1423 66.4125 16.065 66.3903 16.0667Z" fill="#263238"/>
<path d="M69.4016 10.5126C68.5943 11.5829 66.4569 12.6841 64.9254 12.9401C65.1101 12.7219 66.0449 12.1825 66.2186 11.9643C65.5258 12.4453 64.5319 13.0895 63.6119 13.1342C63.5034 13.1483 63.3928 13.1322 63.2941 13.0878C63.2421 13.0493 63.2005 13.0001 63.1726 12.944C63.1447 12.888 63.1313 12.8266 63.1334 12.7648C63.0819 12.1449 63.1036 11.5216 63.1981 10.906C63.2707 10.3848 63.5557 9.9095 63.9943 9.57803C64.5836 9.15369 65.4279 9.0489 66.2241 9.03172C66.8897 8.992 67.5572 9.0755 68.1879 9.27739C68.7994 9.50072 69.3204 9.94396 69.409 10.48" fill="#263238"/>
<path d="M71.7183 15.3124C71.821 14.8588 71.8944 14.3998 71.9382 13.9381C72.0028 12.8799 71.674 8.97004 67.7464 9.28441L68.6923 10.4062C68.6923 10.4062 67.9164 12.7751 69.5679 14.4105C69.5679 14.4105 69.6622 15.3673 70.8131 16.4719C70.8131 16.4719 71.48 16.453 71.7183 15.3124Z" fill="#263238"/>
<path d="M69.5218 14.2319C69.7593 14.188 70.0052 14.2052 70.233 14.2817C70.4605 14.3614 70.645 14.5213 70.7466 14.7267C70.8361 14.9375 70.8361 15.1721 70.7466 15.3829C70.6555 15.5913 70.5161 15.7785 70.3383 15.931C70.2181 16.0478 70.07 16.1367 69.906 16.1904C69.8237 16.2164 69.7359 16.223 69.6501 16.2098C69.5644 16.1967 69.4835 16.164 69.4146 16.1148" fill="#FFBE9D"/>
<path d="M69.6362 15.5658C69.6085 15.5658 69.7101 15.7067 69.9262 15.6552C70.0427 15.6197 70.1395 15.5432 70.1959 15.442C70.262 15.3291 70.3034 15.2053 70.3179 15.0775C70.3367 14.9422 70.3033 14.8051 70.2237 14.6906C70.1893 14.6423 70.1438 14.6017 70.0904 14.572C70.037 14.5422 69.9771 14.524 69.9151 14.5187C69.6935 14.5187 69.6214 14.6545 69.6473 14.6579C69.6731 14.6614 69.7526 14.6029 69.8967 14.6356C69.985 14.6686 70.0577 14.7299 70.1017 14.8084C70.1458 14.8869 70.1582 14.9774 70.1368 15.0637C70.1091 15.2889 70.0131 15.4953 69.8819 15.5451C69.7507 15.595 69.6491 15.5468 69.6362 15.5658Z" fill="#EB996E"/>
<path d="M72.291 35.233V34.2951H65.1914L63.1075 25.8088L52.4832 25.8896L55.0584 35.233H72.291Z" fill="#263238"/>
<path d="M57.5173 30.5262C57.6744 30.9763 58.1011 31.2494 58.4725 31.1377C58.8438 31.0261 59.0156 30.5708 58.8567 30.1224C58.6978 29.674 58.2729 29.3992 57.9035 29.5108C57.534 29.6225 57.3603 30.0864 57.5173 30.5262Z" fill="#FAFAFA"/>
<path d="M62.629 35.1763C62.4499 34.8598 62.3009 34.5292 62.1838 34.1885C62.1511 34.108 62.1373 34.0219 62.1431 33.936C62.1473 33.8936 62.1651 33.8533 62.194 33.8202C62.223 33.7872 62.2618 33.7629 62.3057 33.7505C62.4719 33.7196 62.5754 33.9068 62.6401 34.0511C62.7637 34.3213 62.954 34.5606 63.1957 34.7495C63.4375 34.9384 63.7237 35.0717 64.0312 35.1385L64.4616 35.1282V35.111L73.7485 34.3414L73.3051 32.6236L78.221 32.28L78.6699 33.9669C78.728 34.4637 78.6702 34.9663 78.5005 35.4404C78.3308 35.9145 78.0532 36.349 77.6866 36.7143C77.32 37.0797 76.873 37.3672 76.3761 37.5575C75.8792 37.7477 75.344 37.8361 74.807 37.8166H64.1512C60.7613 38.0227 60.1239 35.2399 60.1239 35.2399L62.629 35.1763Z" fill="#FFBE9D"/>
<path d="M50.2736 62.8618L46.0764 65.2669L47.6171 68.7113C49.0467 67.4757 50.1711 65.9665 50.9128 64.2877L50.2736 62.8618Z" fill="#B78876"/>
<path d="M51.4134 62.9408C50.8703 61.7383 49.0118 57.7459 47.4508 56.2547C45.1175 54.0214 41.0107 54.3238 41.0107 54.3238L35.6754 54.4956C34.3075 54.6679 32.9797 55.0498 31.746 55.626L31.6149 55.6638V55.6878C30.1222 56.442 28.0087 58.2509 25.9932 60.0066L28.4041 62.0853L31.0717 64.2877C31.0657 64.302 31.0657 64.318 31.0717 64.3323C31.0994 64.4663 30.6376 67.1308 30.2293 69.4328C32.2195 70.8665 34.6023 71.7521 37.1069 71.989C39.6114 72.2259 42.1372 71.8045 44.397 70.7728L44.5965 68.6443C44.7813 66.7151 44.918 64.3272 44.918 64.3272L45.6828 66.1327L51.249 63.4424C51.3063 63.2792 51.3599 63.1109 51.4134 62.9408Z" fill="#407BFF"/>
<path d="M41.1586 54.1367C41.1705 54.1655 41.1786 54.1955 41.1826 54.226C41.2009 54.3116 41.2126 54.3983 41.2177 54.4855C41.2359 54.8085 41.1889 55.1319 41.0792 55.4389C40.9169 55.8972 40.6261 56.307 40.2368 56.6259C39.7466 57.0069 39.1358 57.2282 38.4977 57.2561C37.8596 57.2841 37.2291 57.117 36.7027 56.7806C36.2815 56.4975 35.9492 56.115 35.7402 55.6725C35.5999 55.3768 35.5209 55.0592 35.5074 54.7363C35.5 54.6494 35.5 54.562 35.5074 54.4751C35.5072 54.4443 35.5122 54.4136 35.5222 54.3841C35.5333 54.3841 35.5222 54.5095 35.537 54.7277C35.566 55.0433 35.6535 55.3519 35.7956 55.6399C36.0075 56.0659 36.3347 56.4335 36.7452 56.7067C37.2573 57.0283 37.8674 57.1874 38.4847 57.1601C39.102 57.1329 39.6932 56.9208 40.1702 56.5555C40.4908 56.2988 40.7471 55.9801 40.9213 55.6216C41.0956 55.2632 41.1835 54.8736 41.1789 54.4803C41.1752 54.2604 41.1475 54.1367 41.1586 54.1367Z" fill="#263238"/>
<path d="M46.2389 55.212C46.1136 55.2304 45.9901 55.258 45.8694 55.2945C45.5397 55.4107 45.2529 55.6129 45.0437 55.8768C44.7423 56.2753 44.5611 56.7415 44.519 57.2271C44.482 57.5002 44.4654 57.7906 44.4543 58.086C44.4432 58.3815 44.4359 58.6976 44.4322 59.0171C44.4245 60.1069 44.4769 61.1963 44.5892 62.2811C44.6317 62.6968 44.676 63.0335 44.7037 63.2672C44.7185 63.3754 44.7277 63.463 44.737 63.5352C44.7419 63.5665 44.7419 63.5983 44.737 63.6296C44.7248 63.5998 44.7167 63.5686 44.713 63.5369C44.6982 63.4664 44.6816 63.3788 44.6612 63.2706C44.6224 63.0404 44.567 62.7037 44.5171 62.2863C44.3841 61.1999 44.3224 60.107 44.3324 59.0137C44.3324 58.6942 44.3416 58.3815 44.3564 58.0792C44.3712 57.7768 44.386 57.4848 44.4266 57.2082C44.474 56.7118 44.6656 56.2368 44.9808 55.8339C45.201 55.5644 45.5037 55.3632 45.8491 55.2567C45.9746 55.2181 46.1071 55.203 46.2389 55.212Z" fill="#263238"/>
<path d="M33.5417 54.889C33.5384 54.9218 33.5309 54.9541 33.5195 54.9852L33.4364 55.2567L33.1224 56.253C32.8619 57.0948 32.5164 58.2613 32.1783 59.56C31.8403 60.8587 31.5761 62.0389 31.3969 62.8978C31.3082 63.3187 31.238 63.6623 31.1863 63.9165C31.1623 64.0282 31.1419 64.1192 31.1253 64.1931C31.1218 64.2256 31.1131 64.2575 31.0994 64.2876C31.0954 64.2551 31.0954 64.2222 31.0994 64.1897C31.1105 64.1158 31.1235 64.0179 31.1419 63.9097C31.1789 63.6674 31.2398 63.317 31.3267 62.8789C31.4911 62.02 31.746 60.8175 32.0823 59.5256C32.4185 58.2338 32.7769 57.0587 33.0558 56.2221C33.1944 55.803 33.3126 55.4645 33.3976 55.2326C33.4383 55.1244 33.4715 55.0368 33.4992 54.9663C33.5107 54.9394 33.5249 54.9135 33.5417 54.889Z" fill="#263238"/>
<path d="M51.3082 62.1111C51.2407 62.1676 51.1677 62.2182 51.0902 62.2623C50.948 62.355 50.7374 62.4856 50.475 62.6419C49.9504 62.958 49.2169 63.3789 48.3912 63.8186C47.5654 64.2584 46.8024 64.6346 46.2463 64.8958C45.9674 65.0263 45.7401 65.1294 45.5831 65.1981C45.5024 65.2371 45.4183 65.2698 45.3318 65.296C45.4054 65.2471 45.4833 65.204 45.5646 65.1672L46.2149 64.8391C46.7691 64.5642 47.5192 64.1811 48.3431 63.7413C49.1671 63.3016 49.906 62.8824 50.4381 62.5887L51.0699 62.2331C51.1448 62.1852 51.2246 62.1443 51.3082 62.1111Z" fill="#263238"/>
<path d="M31.3507 62.8654C31.3322 62.8843 30.2848 62.1164 29.0082 61.1475C27.7316 60.1785 26.7082 59.3797 26.7248 59.3608C26.7414 59.3419 27.7908 60.1098 29.0673 61.0787C30.3439 62.0476 31.3673 62.8465 31.3507 62.8654Z" fill="#263238"/>
<path opacity="0.2" d="M44.3712 59.3745L46.4588 65.7616L45.681 66.1378L44.9162 64.3323C44.9162 64.3323 44.1273 60.5358 44.3712 59.3745Z" fill="black"/>
<g opacity="0.2">
<path opacity="0.2" d="M33.7671 54.8926C32.642 55.4457 35.463 56.7821 36.7377 56.7374L35.814 54.4666C35.814 54.4666 34.1458 54.7088 33.7671 54.8926Z" fill="black"/>
</g>
<path opacity="0.2" d="M40.9517 64.1574L34.2678 64.1797L34.7074 61.893L41.4468 61.771L40.9517 64.1574Z" fill="white"/>
<path d="M40.3125 46.7652C40.2873 46.8519 40.2895 46.9434 40.3186 47.029C40.3477 47.1145 40.4027 47.1905 40.4769 47.2479C40.5531 47.3032 40.6447 47.337 40.7409 47.3455C40.8371 47.354 40.9339 47.3369 41.02 47.296C41.3415 47.1363 41.3747 46.7171 41.3027 46.3839C41.2306 46.0506 41.1032 45.6967 41.2473 45.3858C41.3581 45.147 41.6038 44.9924 41.8015 44.8017C41.9701 44.6375 42.0952 44.4389 42.1667 44.2218C42.2382 44.0047 42.2542 43.775 42.2134 43.5511C42.1686 43.3286 42.0586 43.1219 41.8957 42.9537C41.7327 42.7856 41.5231 42.6624 41.2897 42.5977C40.8094 42.4826 40.2219 42.6304 39.8599 42.3143C39.5957 42.0858 39.5717 41.7027 39.3666 41.4279C39.047 41.0019 38.3893 40.9452 37.837 41.0242C37.2846 41.1032 36.7285 41.2802 36.1743 41.1651C35.718 41.0689 35.3411 40.7803 34.9125 40.6085C34.4439 40.4152 33.9217 40.3636 33.4198 40.461C32.9179 40.5584 32.4616 40.7999 32.1152 41.1514C31.7689 41.5029 31.5499 41.9467 31.4893 42.4201C31.4287 42.8935 31.5295 43.3726 31.7775 43.7899C31.941 44.0962 32.215 44.3394 32.5515 44.4771" fill="#263238"/>
<path d="M38.3745 57.2014C37.6714 57.2059 36.9933 56.9587 36.4808 56.5109C35.9683 56.0631 35.6608 55.4492 35.6219 54.7963C35.5609 53.6694 35.5111 52.5854 35.5111 52.5854C35.5111 52.5854 33.2628 52.4342 33.0559 50.3916C32.849 48.349 32.8194 43.6231 32.8194 43.6231C34.0375 43.0285 35.4031 42.7443 36.7775 42.7992C38.1519 42.8541 39.4862 43.2462 40.645 43.9357L40.8593 44.0629L41.1198 54.6365C41.122 54.9729 41.0526 55.3064 40.9155 55.6177C40.7785 55.929 40.5766 56.212 40.3214 56.4504C40.0662 56.6888 39.7628 56.8779 39.4287 57.0068C39.0945 57.1357 38.7363 57.2018 38.3745 57.2014Z" fill="#B78876"/>
<path d="M37.085 46.7637C37.0447 46.7756 37.0074 46.7948 36.9751 46.8202C36.9429 46.8456 36.9164 46.8767 36.8971 46.9117C36.8779 46.9467 36.8663 46.9849 36.863 47.0241C36.8598 47.0633 36.8649 47.1028 36.8781 47.1401C36.9059 47.2155 36.9645 47.2777 37.0413 47.3132C37.1181 47.3486 37.2069 47.3543 37.2882 47.3292C37.3281 47.3168 37.365 47.2972 37.3968 47.2715C37.4285 47.2458 37.4546 47.2145 37.4733 47.1795C37.4921 47.1445 37.5033 47.1063 37.5062 47.0673C37.5092 47.0282 37.5038 46.989 37.4905 46.9519C37.4772 46.9148 37.4561 46.8804 37.4285 46.8509C37.4009 46.8213 37.3673 46.7971 37.3296 46.7796C37.292 46.7622 37.251 46.7518 37.209 46.749C37.1671 46.7463 37.1249 46.7513 37.085 46.7637Z" fill="#263238"/>
<path d="M36.468 46.8686C36.5049 46.903 36.7137 46.7362 37.0222 46.7173C37.3307 46.6984 37.5598 46.8325 37.5912 46.7947C37.6226 46.7569 37.5672 46.7156 37.4656 46.6537C37.3292 46.5739 37.169 46.5365 37.0083 46.547C36.8475 46.5575 36.6945 46.6154 36.5714 46.7122C36.4791 46.7878 36.4514 46.8549 36.468 46.8686Z" fill="#263238"/>
<path d="M33.7301 46.7635C33.6899 46.7754 33.6526 46.7946 33.6204 46.82C33.5882 46.8455 33.5618 46.8767 33.5427 46.9117C33.5236 46.9468 33.5122 46.9851 33.5092 47.0243C33.5062 47.0635 33.5116 47.1029 33.5251 47.1401C33.5445 47.197 33.5818 47.2473 33.632 47.2844C33.6822 47.3216 33.7432 47.344 33.8072 47.3488C33.8711 47.3536 33.9352 47.3405 33.9911 47.3113C34.0471 47.2821 34.0925 47.2381 34.1215 47.1848C34.1505 47.1316 34.1618 47.0715 34.154 47.0122C34.1462 46.9529 34.1197 46.8971 34.0777 46.8519C34.0357 46.8067 33.9803 46.7742 33.9184 46.7585C33.8565 46.7427 33.791 46.7445 33.7301 46.7635Z" fill="#263238"/>
<path d="M33.0706 46.8756C33.1076 46.91 33.3164 46.7415 33.6249 46.7243C33.9334 46.7071 34.1625 46.8395 34.1939 46.8017C34.2253 46.7638 34.1699 46.7226 34.0682 46.6589C33.9315 46.5798 33.7713 46.543 33.6107 46.5539C33.4501 46.5647 33.2973 46.6225 33.1741 46.7191C33.0836 46.7948 33.0559 46.8602 33.0706 46.8756Z" fill="#263238"/>
<path d="M35.3818 49.0843C35.2191 49.0384 35.0491 49.0186 34.8793 49.0259C34.798 49.0259 34.7333 49.0105 34.7241 48.9727C34.7149 48.8985 34.7283 48.8235 34.7629 48.7562L34.9476 48.1669C35.21 47.3252 35.3836 46.6346 35.3374 46.6208C35.2912 46.6071 35.0418 47.2788 34.7832 48.1206L34.5985 48.7132C34.5543 48.812 34.5484 48.9219 34.5818 49.0242C34.5958 49.0515 34.6164 49.0754 34.6421 49.0939C34.6677 49.1124 34.6977 49.125 34.7296 49.1307C34.7751 49.1355 34.8209 49.1355 34.8663 49.1307C35.0397 49.143 35.2141 49.1273 35.3818 49.0843Z" fill="#263238"/>
<path d="M36.396 49.3267C35.9289 49.5456 35.4385 49.7185 34.9328 49.8426C35.0502 49.9831 35.215 50.0828 35.4007 50.1255C35.5863 50.1682 35.782 50.1516 35.9563 50.0782C36.6066 49.7961 36.396 49.3267 36.396 49.3267Z" fill="white"/>
<path d="M35.5037 52.5528C36.5285 52.4942 37.5118 52.1554 38.3302 51.5787C38.3302 51.5787 37.776 53.1026 35.5462 53.0837L35.5037 52.5528Z" fill="#A36957"/>
<path d="M40.9166 46.1297C40.915 46.0495 40.9468 45.9718 41.0053 45.9129C41.0638 45.854 41.1445 45.8184 41.2306 45.8136C41.6444 45.7964 42.3261 45.9355 42.413 46.9886C42.5349 48.4934 40.9554 48.1464 40.948 48.1035C40.9406 48.0605 40.924 46.7154 40.9166 46.1297Z" fill="#B78876"/>
<path d="M41.2971 47.5039C41.2971 47.5039 41.3267 47.5211 41.3766 47.5383C41.4463 47.5593 41.522 47.5557 41.589 47.528C41.7571 47.4576 41.8809 47.1947 41.8661 46.9233C41.8604 46.7936 41.8232 46.6667 41.7571 46.5523C41.7376 46.5063 41.7064 46.4654 41.6662 46.4331C41.626 46.4008 41.578 46.378 41.5262 46.3667C41.493 46.3607 41.4587 46.3659 41.4292 46.3813C41.3997 46.3967 41.3772 46.4214 41.3655 46.4509C41.347 46.4939 41.3655 46.5231 41.3507 46.5265C41.3359 46.5299 41.3138 46.5042 41.3212 46.4406C41.3276 46.4023 41.3478 46.3672 41.3784 46.341C41.4211 46.3074 41.4759 46.2902 41.5318 46.2929C41.5995 46.2998 41.6643 46.3229 41.7196 46.3599C41.775 46.3969 41.8191 46.4466 41.8477 46.5042C41.9286 46.6296 41.9743 46.772 41.9807 46.9182C41.9955 47.2222 41.8495 47.5177 41.6112 47.5967C41.5684 47.6113 41.5227 47.6169 41.4773 47.6131C41.4319 47.6092 41.3881 47.596 41.3489 47.5744C41.3027 47.54 41.2916 47.5074 41.2971 47.5039Z" fill="#A36957"/>
<path d="M37.558 46.0303C37.4896 46.1129 37.2476 46.075 36.9354 46.063C36.6232 46.051 36.3812 46.0492 36.3202 45.9598C36.2593 45.8704 36.5585 45.652 36.9613 45.6813C37.364 45.7105 37.6355 45.9443 37.558 46.0303Z" fill="#263238"/>
<path d="M34.0276 45.9786C34.0036 46.0818 33.8022 46.1316 33.5731 46.1506C33.3441 46.1695 33.1334 46.1505 33.091 46.0525C33.0485 45.9545 33.2406 45.7946 33.5362 45.7705C33.8318 45.7464 34.0516 45.8771 34.0276 45.9786Z" fill="#263238"/>
<path d="M32.5164 44.2674C32.5164 44.2674 33.8502 44.8669 35.5849 44.0613C36.7248 43.5339 38.0512 43.2745 38.3431 43.4875C38.635 43.7005 38.6978 44.7914 39.821 45.1109C39.821 45.1109 39.7434 47.1912 40.6357 47.1173C41.528 47.0435 40.9701 43.8191 40.9701 43.8191L38.7865 42.8278L36.3959 42.4087L34.1495 42.7042L32.413 43.1456L32.5164 44.2674Z" fill="#263238"/>
<path d="M24.532 47.8304C24.6115 47.949 27.1794 56.2222 27.1794 56.2222L22.0842 56.8699L19.7399 50.1169L24.532 47.8304Z" fill="#455A64"/>
<path d="M27.1793 56.2223L27.6375 55.9972L24.9698 47.6138L24.4766 47.856L27.1793 56.2223Z" fill="#263238"/>
<path d="M22.3964 50.0277C22.4054 50.0666 22.4018 50.1072 22.3859 50.1443C22.3701 50.1813 22.3428 50.2131 22.3075 50.2357C22.2723 50.2583 22.2305 50.2706 22.1877 50.2711C22.1449 50.2716 22.1029 50.2602 22.067 50.2384C22.0311 50.2167 22.003 50.1855 21.9862 50.1488C21.9694 50.1121 21.9647 50.0716 21.9727 50.0325C21.9807 49.9933 22.001 49.9572 22.031 49.9288C22.0611 49.9004 22.0995 49.881 22.1415 49.8729C22.1973 49.8622 22.2554 49.8725 22.3032 49.9014C22.3509 49.9304 22.3844 49.9758 22.3964 50.0277Z" fill="#263238"/>
<path d="M26.2186 59.9998L22.8748 62.0252L22.2597 54.7808L22.3114 54.4183L24.5726 53.6212L23.9223 52.0751C23.8475 51.9037 23.7352 51.7486 23.5926 51.6197C23.4499 51.4908 23.28 51.3909 23.0936 51.3263C22.9073 51.2617 22.7085 51.2338 22.5099 51.2444C22.3113 51.255 22.1173 51.3039 21.9401 51.3879L21.214 51.7315C20.9587 51.8527 20.7336 52.0224 20.5532 52.2295C20.3728 52.4366 20.2411 52.6766 20.1665 52.934C19.9098 53.8308 19.6807 54.8014 19.7047 54.7172L18.2711 64.042C18.2711 64.042 17.5913 66.7305 19.5643 68.0104C21.0588 68.9758 23.575 67.9502 24.9107 67.2476L30.7004 64.0042L26.2186 59.9998Z" fill="#B78876"/>
<path d="M29.6326 21.971L27.3659 18.7637L23.5417 20.9969L27.0075 25.9634C27.0075 25.9634 28.914 24.0428 29.6326 21.971Z" fill="#EB996E"/>
<path d="M15.4262 5.92603C15.6109 5.73534 15.3597 5.43642 15.0973 5.34709C14.835 5.25775 14.5117 5.21824 14.3861 4.98804C14.2346 4.70802 14.5025 4.39364 14.5505 4.0827C14.5985 3.77176 14.3953 3.43504 14.3343 3.10349C14.2955 2.8918 14.3167 2.67436 14.3958 2.47261C14.4749 2.27086 14.6092 2.09178 14.7855 1.95302C14.9617 1.81427 15.1738 1.72065 15.4009 1.68139C15.6279 1.64213 15.862 1.65859 16.0801 1.72915C16.0941 1.40312 16.2145 1.08876 16.4251 0.827822C16.6358 0.566888 16.9269 0.371729 17.2596 0.268267C17.5924 0.164804 17.9512 0.157934 18.2883 0.24857C18.6253 0.339206 18.9248 0.523058 19.1468 0.775707C19.4798 0.517822 19.8482 0.302332 20.2423 0.134923C20.4399 0.0521819 20.653 0.00655147 20.8695 0.000655123C21.0861 -0.00524123 21.3017 0.0287126 21.5041 0.100565C21.7044 0.178286 21.8723 0.314099 21.9828 0.487767C22.0933 0.661436 22.1406 0.863663 22.1175 1.06432C22.2786 0.907616 22.4892 0.802796 22.7188 0.765103C22.9484 0.727409 23.1849 0.758807 23.394 0.854731C23.6003 0.955833 23.781 1.09671 23.924 1.26794C24.0671 1.43918 24.1692 1.63683 24.2235 1.84769C24.3935 2.43178 24.2457 3.11895 23.745 3.50376C23.2444 3.88857 22.389 3.84734 22.0177 3.35774" fill="#263238"/>
<path d="M17.8795 15.8004C18.5378 15.8035 19.1722 15.571 19.6512 15.1511C20.1303 14.7312 20.4173 14.1561 20.4529 13.5448C20.5102 12.4917 20.5582 11.4833 20.5582 11.4833C20.5582 11.4833 22.6605 11.3407 22.8545 9.42185C23.0485 7.50296 23.0744 3.08797 23.0744 3.08797C21.9339 2.53176 20.6554 2.26626 19.3688 2.31846C18.0822 2.37066 16.8334 2.7387 15.7494 3.38517L15.5499 3.5037L15.3079 13.3971C15.3052 13.7123 15.3698 14.025 15.4979 14.3169C15.626 14.6089 15.8151 14.8743 16.0543 15.0978C16.2935 15.3213 16.5779 15.4985 16.8912 15.6191C17.2045 15.7397 17.5404 15.8013 17.8795 15.8004Z" fill="#FFBE9D"/>
<path d="M19.0859 6.03591C19.1583 6.06015 19.2178 6.10941 19.2522 6.17345C19.2866 6.23749 19.2932 6.3114 19.2706 6.37985C19.2435 6.44918 19.1883 6.50592 19.1169 6.53803C19.0455 6.57014 18.9635 6.57509 18.8882 6.55182C18.8155 6.52793 18.7557 6.47873 18.7212 6.41457C18.6868 6.35042 18.6804 6.27632 18.7035 6.20788C18.7303 6.13827 18.7854 6.08124 18.8569 6.04908C18.9284 6.01691 19.0107 6.01218 19.0859 6.03591Z" fill="#263238"/>
<path d="M19.6623 6.13231C19.6272 6.16326 19.4313 6.0068 19.1468 5.99132C18.8623 5.97585 18.6425 6.09792 18.6129 6.06354C18.5834 6.02915 18.6351 5.9896 18.7293 5.92942C18.8572 5.85495 19.0075 5.8206 19.1579 5.83142C19.3084 5.8405 19.4517 5.8948 19.5662 5.98616C19.6512 6.05666 19.6789 6.11856 19.6623 6.13231Z" fill="#263238"/>
<path d="M22.2247 6.03591C22.2968 6.0605 22.356 6.10981 22.3904 6.17374C22.4247 6.23767 22.4315 6.3114 22.4094 6.37985C22.3822 6.44918 22.3271 6.50592 22.2557 6.53803C22.1843 6.57014 22.1022 6.57509 22.027 6.55182C21.9543 6.52793 21.8945 6.47873 21.86 6.41457C21.8256 6.35042 21.8192 6.27632 21.8423 6.20788C21.8691 6.13827 21.9241 6.08124 21.9957 6.04908C22.0672 6.01691 22.1494 6.01218 22.2247 6.03591Z" fill="#263238"/>
<path d="M22.8379 6.13927C22.8046 6.17022 22.6088 6.01377 22.3225 5.99657C22.0361 5.97938 21.82 6.10489 21.7904 6.06878C21.7609 6.03268 21.8126 5.99485 21.9068 5.9364C22.0345 5.86182 22.1845 5.82696 22.3349 5.83685C22.4853 5.84674 22.6285 5.90087 22.7437 5.99142C22.8287 6.0619 22.8545 6.1238 22.8379 6.13927Z" fill="#263238"/>
<path d="M20.6783 8.20564C20.8307 8.1619 20.9901 8.14272 21.1494 8.14895C21.2252 8.14895 21.2843 8.13692 21.2935 8.09912C21.3013 8.03024 21.2886 7.96068 21.2566 7.89812C21.1993 7.72633 21.1402 7.53735 21.0718 7.34666C20.828 6.55984 20.6636 5.91217 20.7024 5.90186C20.7412 5.89155 20.9795 6.5186 21.2252 7.30371C21.2824 7.49612 21.3379 7.67994 21.3933 7.86033C21.433 7.95224 21.4382 8.05394 21.4081 8.14895C21.3951 8.17474 21.3758 8.19734 21.3517 8.21494C21.3277 8.23255 21.2995 8.24466 21.2695 8.2503C21.2266 8.25608 21.1831 8.25608 21.1402 8.2503C20.9847 8.25891 20.8286 8.24383 20.6783 8.20564Z" fill="#263238"/>
<path d="M19.7232 8.42725C20.1612 8.63044 20.6206 8.79116 21.094 8.90688C20.9846 9.03813 20.8309 9.13134 20.6577 9.17156C20.4845 9.21178 20.3017 9.19666 20.1389 9.12864C19.5329 8.87078 19.7232 8.42725 19.7232 8.42725Z" fill="white"/>
<path d="M20.5638 11.4506C19.6058 11.3949 18.6869 11.0776 17.922 10.5385C17.922 10.5385 18.4411 11.9643 20.5287 11.9471L20.5638 11.4506Z" fill="#EB996E"/>
<path d="M15.5001 6.31587C15.5017 6.24088 15.472 6.16824 15.4172 6.11316C15.3625 6.05808 15.2869 6.02485 15.2064 6.02043C14.8184 6.00325 14.1811 6.1338 14.0979 7.11806C13.9834 8.5266 15.4632 8.20195 15.4687 8.16072C15.4743 8.11949 15.4927 6.86211 15.5001 6.31587Z" fill="#FFBE9D"/>
<path d="M15.1509 7.60085C15.1509 7.60085 15.1232 7.61632 15.0751 7.63349C15.0101 7.65281 14.9397 7.64914 14.8775 7.62319C14.7204 7.55619 14.6022 7.31054 14.617 7.05629C14.6226 6.93611 14.6573 6.81867 14.7186 6.71272C14.7369 6.6699 14.7661 6.63189 14.8038 6.60195C14.8415 6.57202 14.8864 6.55107 14.9347 6.54093C14.9658 6.53493 14.9981 6.53942 15.0258 6.55359C15.0536 6.56776 15.075 6.59069 15.0862 6.61823C15.1029 6.65946 15.0862 6.68695 15.0992 6.68867C15.1121 6.69039 15.1343 6.66805 15.1269 6.60964C15.1219 6.57365 15.1028 6.54063 15.0733 6.51688C15.0538 6.50058 15.0311 6.48808 15.0063 6.48011C14.9816 6.47214 14.9553 6.46887 14.9292 6.4705C14.8656 6.47706 14.8049 6.49888 14.7531 6.53381C14.7013 6.56874 14.6601 6.61559 14.6336 6.66977C14.5585 6.78707 14.516 6.9199 14.5098 7.05629C14.4969 7.33974 14.6318 7.61631 14.8479 7.69018C14.8882 7.70439 14.9314 7.70991 14.9742 7.70634C15.0171 7.70277 15.0586 7.6902 15.0955 7.66957C15.1398 7.63521 15.1509 7.60429 15.1509 7.60085Z" fill="#EB996E"/>
<path d="M18.6424 5.34896C18.7071 5.42632 18.9325 5.39022 19.2244 5.37991C19.5163 5.36959 19.7472 5.36787 19.7989 5.28364C19.8506 5.19941 19.5772 4.99485 19.2003 5.02407C18.8235 5.0533 18.5685 5.26817 18.6424 5.34896Z" fill="#263238"/>
<path d="M21.9457 5.29907C21.9678 5.39703 22.1563 5.44343 22.3706 5.47092C22.5849 5.49842 22.7807 5.47092 22.8213 5.37812C22.862 5.28532 22.6809 5.13753 22.4057 5.11519C22.1304 5.09285 21.9235 5.20455 21.9457 5.29907Z" fill="#263238"/>
<path d="M23.3682 3.69771C23.3682 3.69771 22.1193 4.25948 20.4973 3.5053C19.4314 3.01053 18.1899 2.77002 17.9109 2.9693C17.632 3.16858 17.5784 4.18905 16.5235 4.48625C16.5235 4.48625 16.5956 6.43442 15.7606 6.36398C14.9255 6.29354 15.4484 3.27166 15.4484 3.27166L17.4805 2.34396L19.7103 1.95227L21.8108 2.22714L23.4365 2.64117L23.3682 3.69771Z" fill="#263238"/>
<path d="M9.38702 14.969C11.5706 12.8818 15.4114 13.1085 15.4114 13.1085L20.3994 13.2803C21.6791 13.4423 22.9213 13.7999 24.0757 14.3385L24.1976 14.3746V14.3969C25.5961 15.103 27.5747 16.8019 29.459 18.4373L27.2033 20.382L24.7075 22.4434C24.7127 22.4567 24.7127 22.4713 24.7075 22.4846C24.6816 22.6083 25.1139 25.1026 25.4945 27.2551C23.6324 28.596 21.4032 29.4245 19.0602 29.6465C16.7171 29.8684 14.3541 29.475 12.2394 28.5109L12.0547 26.5199C11.8847 24.7144 11.7554 22.4795 11.7554 22.4795" fill="#407BFF"/>
<path d="M22.4001 13.6357C22.4169 13.6627 22.4299 13.6916 22.4389 13.7216C22.4647 13.7869 22.4961 13.8694 22.5331 13.9707C22.6144 14.1872 22.7178 14.5033 22.8545 14.895C23.115 15.6783 23.4494 16.7692 23.7653 17.9872C24.0812 19.2052 24.3195 20.3166 24.4729 21.1258C24.5486 21.5295 24.6059 21.8559 24.641 22.0843C24.6558 22.1891 24.6687 22.275 24.6779 22.3455C24.682 22.3763 24.682 22.4074 24.6779 22.4382C24.6647 22.4098 24.656 22.3797 24.6521 22.3489L24.5966 22.0895C24.5468 21.8524 24.4803 21.5295 24.3971 21.1361C24.229 20.3321 23.9796 19.2241 23.6582 18.0078C23.3367 16.7915 23.019 15.7024 22.7751 14.9156C22.655 14.5325 22.5553 14.2164 22.4832 13.9845L22.4056 13.7302C22.3987 13.6992 22.3969 13.6673 22.4001 13.6357Z" fill="#263238"/>
<path d="M24.4507 21.0983C24.4341 21.0794 25.3892 20.3303 26.5826 19.425C27.776 18.5196 28.7607 17.8015 28.7773 17.8204C28.794 17.8393 27.8389 18.5884 26.6436 19.4937C25.4483 20.3991 24.4673 21.1172 24.4507 21.0983Z" fill="#263238"/>
<path opacity="0.2" d="M12.269 17.8325L10.3145 23.809L11.0423 24.1526L11.7591 22.4622C11.7591 22.4622 12.4944 18.9199 12.269 17.8325Z" fill="black"/>
<g opacity="0.2">
<path opacity="0.2" d="M22.1877 13.6392C23.2407 14.1545 20.6026 15.3983 19.4166 15.3657L20.283 13.2406C20.283 13.2406 21.8348 13.4657 22.1877 13.6392Z" fill="black"/>
</g>
<path d="M15.0973 13.2407V11.6584C15.0973 11.6584 18.4226 12.4539 18.5427 14.3041C18.5427 14.3041 18.9658 12.2597 20.6783 12.1601L20.9203 15.0359L18.927 16.649H16.9077L15.3079 15.3658L15.0973 13.3695" fill="#407BFF"/>
<path d="M19.2909 23.1753C19.2862 23.1463 19.2862 23.1167 19.2909 23.0877C19.2909 23.019 19.2909 22.9365 19.2909 22.8351C19.2909 22.617 19.302 22.2992 19.3038 21.9092C19.3038 21.1276 19.2835 20.047 19.1782 18.8582C19.0729 17.6694 18.9048 16.6009 18.7607 15.8296C18.6905 15.4448 18.6295 15.1424 18.5759 14.9191C18.5575 14.8195 18.5408 14.737 18.5279 14.6717C18.5203 14.6425 18.5172 14.6124 18.5187 14.5824C18.5309 14.6095 18.5402 14.6377 18.5464 14.6666C18.5649 14.7336 18.587 14.8143 18.6129 14.9122C18.6683 15.1235 18.7404 15.4276 18.8216 15.8193C19.0274 16.822 19.176 17.8341 19.2669 18.8514C19.3572 19.8683 19.3899 20.889 19.3648 21.9092C19.3537 22.3009 19.3389 22.6187 19.3204 22.8369C19.3204 22.9365 19.3057 23.0207 19.3001 23.0877C19.3022 23.1172 19.299 23.1467 19.2909 23.1753Z" fill="#263238"/>
<path d="M18.3894 13.7663C18.3234 13.7541 18.2551 13.7588 18.1918 13.7801C18.1177 13.8066 18.0536 13.8525 18.007 13.9123C17.9448 13.9942 17.8927 14.0824 17.8519 14.1752C17.5771 14.7259 17.3641 15.3016 17.2163 15.893L17.2016 15.9514L17.1461 15.9205C16.9466 15.8088 16.7434 15.6886 16.5384 15.558C16.1647 15.3235 15.8051 15.07 15.4613 14.7987C15.304 14.6786 15.1778 14.5271 15.0918 14.3555C15.0254 14.204 14.9873 14.0431 14.9791 13.8797C14.9724 13.6488 14.996 13.4181 15.0493 13.1926C15.0626 13.1084 15.0862 13.026 15.1195 12.9469C15.1163 13.0312 15.1052 13.1152 15.0863 13.1977C15.0478 13.4249 15.0348 13.6552 15.0475 13.8848C15.0591 14.0393 15.0984 14.1908 15.1639 14.3332C15.2473 14.4932 15.3678 14.634 15.5167 14.7455C15.8598 15.0116 16.2174 15.261 16.5882 15.4928C16.7914 15.6216 16.9947 15.7418 17.1905 15.8535L17.1203 15.881C17.2725 15.2862 17.4981 14.7097 17.7927 14.1631C17.839 14.0682 17.8973 13.9788 17.9664 13.8969C18.0208 13.8345 18.0932 13.788 18.1752 13.7629C18.3211 13.7182 18.395 13.7663 18.3894 13.7663Z" fill="#263238"/>
<path d="M20.6783 12.1599C20.6965 12.2413 20.7057 12.3242 20.706 12.4073C20.7189 12.5791 20.7356 12.811 20.7559 13.0824C20.7762 13.3539 20.8168 13.7026 20.8778 14.0754C20.9312 14.2724 20.945 14.4768 20.9185 14.6784C20.8371 14.8892 20.6849 15.0699 20.4843 15.1938C20.2208 15.3432 19.9733 15.5158 19.7454 15.7092L19.6733 15.7865V15.6834C19.6325 15.1402 19.4628 14.6122 19.1764 14.1373C18.9639 13.7851 18.7884 13.6047 18.8069 13.5961C18.8557 13.6318 18.8992 13.6734 18.9362 13.7198C19.0469 13.8422 19.147 13.9726 19.2355 14.1098C19.5435 14.5853 19.7276 15.1213 19.7731 15.6748L19.6918 15.6491C19.9182 15.4488 20.1657 15.2704 20.4307 15.1165C20.6141 15.0055 20.7545 14.843 20.8316 14.6527C20.8559 14.4621 20.844 14.269 20.7965 14.0823C20.7393 13.7061 20.7097 13.3659 20.6931 13.0807C20.6764 12.7956 20.6746 12.5653 20.6746 12.4039C20.6688 12.3226 20.67 12.241 20.6783 12.1599Z" fill="#263238"/>
<path d="M31.3784 12.5636C31.2436 12.7113 26.3498 18.7961 26.3498 18.7961L27.0389 19.1586L32.0601 13.146L31.3784 12.5636Z" fill="#263238"/>
<path d="M11.7184 17.3738C11.7184 17.3738 16.8671 24.2661 17.1775 24.4018C17.7871 24.6681 24.8313 19.0075 25.5037 18.4664C25.5961 18.3513 25.7864 18.1091 26.1614 17.6263C26.1614 17.6263 26.7156 15.2608 27.3105 15.4429C27.9053 15.625 26.9853 16.6454 27.3714 17.5422C27.7575 18.4389 29.5273 16.2984 29.5883 16.106L30.0446 15.5511C30.0446 15.5511 30.5231 16.8138 30.4898 17.3394C30.3864 19.0264 28.6702 21.033 28.6702 21.033C28.6702 21.033 20.9702 29.9146 15.6903 30.1826C14.1699 30.2616 11.4672 26.2503 9.66041 23.2405C9.13737 22.3621 8.97696 21.3365 9.20926 20.356C9.44157 19.3755 10.0506 18.5075 10.9222 17.9149L11.7184 17.3738Z" fill="#FFBE9D"/>
<path d="M29.6327 17.6349C29.6197 17.6263 29.786 17.3566 29.9689 17.0131C30.1518 16.6696 30.2811 16.3827 30.2959 16.3879C30.233 16.6139 30.1406 16.832 30.0206 17.0372C29.9168 17.2498 29.7866 17.4504 29.6327 17.6349Z" fill="#EB996E"/>
<path d="M10.8465 14.005C10.8465 14.005 5.32087 15.8277 9.42396 24.4739L15.803 20.8938L14.896 18.8735L10.8465 14.005Z" fill="#407BFF"/>
<path d="M10.4233 14.1544H10.4677H10.5952C10.7615 14.157 10.927 14.1772 11.0884 14.2145C11.343 14.2759 11.5864 14.372 11.8107 14.4997C12.1057 14.6707 12.3752 14.8769 12.6125 15.113C13.2145 15.7408 13.7188 16.4439 14.1108 17.202C14.5781 18.042 15.0141 18.9989 15.4612 20.0039L15.8529 20.8834L15.8695 20.9212L15.8307 20.9401C13.9833 21.8764 12.3779 22.7525 11.2436 23.4105C10.6764 23.7386 10.2238 24.0083 9.91346 24.1955L9.55691 24.4103C9.51657 24.437 9.47394 24.4605 9.42944 24.4807C9.46616 24.4503 9.50505 24.4221 9.54583 24.3965C9.62527 24.345 9.74165 24.266 9.89314 24.1681C10.198 23.9722 10.645 23.6939 11.2103 23.3589C12.3372 22.6889 13.9389 21.8008 15.7863 20.8611L15.7642 20.9178L15.3725 20.0382C14.9255 19.0333 14.4932 18.0781 14.0332 17.2398C13.6443 16.4877 13.1471 15.7884 12.5552 15.1611C12.3242 14.9251 12.0608 14.7184 11.7719 14.5461C11.56 14.4157 11.3292 14.3139 11.0866 14.2438C10.8687 14.196 10.6468 14.1661 10.4233 14.1544Z" fill="#263238"/>
<path d="M41.4264 37.7189C41.4257 37.932 41.357 38.1401 41.229 38.3169C41.1011 38.4937 40.9196 38.6312 40.7075 38.7121C40.4955 38.7929 40.2624 38.8135 40.0378 38.7711C39.8132 38.7287 39.6072 38.6254 39.4458 38.4741C39.2844 38.3228 39.1749 38.1304 39.1311 37.9212C39.0874 37.712 39.1113 37.4954 39.1999 37.2989C39.2886 37.1024 39.4379 36.9347 39.629 36.8171C39.8201 36.6995 40.0445 36.6373 40.2737 36.6383C40.5805 36.6397 40.8743 36.7542 41.0904 36.9568C41.3066 37.1594 41.4274 37.4335 41.4264 37.7189Z" fill="#263238"/>
<path d="M37.9552 36.3361C38.2504 36.0403 38.6071 35.8033 39.0037 35.6395C39.4003 35.4757 39.8285 35.3885 40.2624 35.3832C40.6963 35.3779 41.1269 35.4546 41.528 35.6087C41.9291 35.7627 42.2924 35.9909 42.5958 36.2794C43.187 36.8326 44.1125 35.9804 43.5195 35.4204C43.0945 35.0209 42.5878 34.7047 42.0292 34.4904C41.4707 34.276 40.8716 34.1679 40.2673 34.1724C39.6631 34.1769 39.066 34.2939 38.5111 34.5165C37.9563 34.7391 37.4551 35.0628 37.037 35.4685C36.4588 36.0337 37.3732 36.8944 37.9607 36.3275L37.9552 36.3361Z" fill="#263238"/>
<path d="M34.0239 31.3245C35.7827 29.9091 37.885 29.0193 40.2386 29.0141C42.5835 28.9893 44.8505 29.7958 46.5788 31.2696C47.1885 31.8021 48.1159 30.9518 47.5025 30.4107C45.5283 28.712 42.9319 27.777 40.2423 27.7962C37.534 27.7962 35.1287 28.8269 33.1058 30.4571C32.4703 30.9724 33.3903 31.8313 34.0295 31.3159L34.0239 31.3245Z" fill="#263238"/>
<path d="M35.5757 34.1028C36.1626 33.4939 36.8788 33.0047 37.6791 32.6659C38.4793 32.3271 39.3464 32.1461 40.2256 32.1344C41.1048 32.1226 41.9771 32.2802 42.7876 32.5974C43.598 32.9146 44.329 33.3845 44.9346 33.9773C45.5202 34.5374 46.4439 33.6853 45.8583 33.1184C45.1324 32.4126 44.2583 31.853 43.2902 31.4743C42.3222 31.0956 41.2808 30.9059 40.2306 30.9168C39.1805 30.9278 38.144 31.1392 37.1853 31.538C36.2266 31.9368 35.3662 32.5145 34.6575 33.2352C34.0904 33.8056 35.0048 34.668 35.5812 34.0942L35.5757 34.1028Z" fill="#263238"/>
<path d="M41.4504 36.9577C41.4497 37.1708 41.381 37.3789 41.253 37.5557C41.1251 37.7325 40.9436 37.87 40.7315 37.9509C40.5195 38.0317 40.2864 38.0522 40.0618 38.0099C39.8372 37.9675 39.6312 37.8641 39.4698 37.7129C39.3084 37.5616 39.1989 37.3692 39.1551 37.16C39.1113 36.9508 39.1353 36.7343 39.2239 36.5377C39.3125 36.3412 39.4619 36.1736 39.653 36.056C39.8441 35.9384 40.0685 35.8762 40.2976 35.8772C40.6044 35.879 40.8979 35.9937 41.1139 36.1962C41.3299 36.3987 41.4509 36.6725 41.4504 36.9577Z" fill="#455A64"/>
<path d="M37.9791 35.5664C38.2744 35.2707 38.631 35.0338 39.0275 34.87C39.4241 34.7062 39.8522 34.6189 40.286 34.6135C40.7199 34.608 41.1504 34.6845 41.5515 34.8382C41.9527 34.992 42.3161 35.2198 42.6198 35.508C43.211 36.0629 44.1365 35.2108 43.5435 34.649C43.1184 34.2497 42.6116 33.9336 42.0529 33.7194C41.4943 33.5052 40.8952 33.3972 40.2909 33.4019C39.6867 33.4065 39.0896 33.5237 38.5348 33.7464C37.9801 33.9692 37.4789 34.293 37.061 34.6988C36.4827 35.2623 37.3972 36.1247 37.9847 35.5578L37.9791 35.5664Z" fill="#455A64"/>
<path d="M34.0461 30.5553C35.8067 29.1398 37.909 28.2499 40.2626 28.2448C42.6076 28.2193 44.8749 29.0259 46.6029 30.5004C47.2125 31.0329 48.1399 30.1825 47.5266 29.6414C45.554 27.9464 42.9612 27.0139 40.2755 27.0336C37.5672 27.0336 35.1601 28.0644 33.1372 29.6947C32.5035 30.21 33.4217 31.069 34.0609 30.5536L34.0461 30.5553Z" fill="#455A64"/>
<path d="M35.5978 33.3314C36.185 32.7229 36.9014 32.234 37.7017 31.8955C38.502 31.557 39.369 31.3763 40.2482 31.3647C41.1273 31.353 41.9995 31.5108 42.8098 31.828C43.6202 32.1452 44.3512 32.6149 44.9567 33.2077C45.5424 33.7677 46.4679 32.9139 45.8804 32.3487C45.1545 31.643 44.2804 31.0834 43.3124 30.7047C42.3443 30.326 41.3029 30.1362 40.2528 30.1472C39.2026 30.1581 38.1661 30.3696 37.2074 30.7684C36.2488 31.1672 35.3884 31.7448 34.6797 32.4655C34.1125 33.0359 35.027 33.8983 35.6034 33.3245L35.5978 33.3314Z" fill="#455A64"/>
</svg>
