<svg xmlns="http://www.w3.org/2000/svg" viewBox="0 0 187.18 102.07"><defs><style>.cls-1{fill:#98c5e5;}.cls-2{fill:#fff;}</style></defs><title>Fichier 1</title><g id="Calque_2" data-name="Calque 2"><g id="Calque_1-2" data-name="Calque 1"><g id="Calque_2-2" data-name="Calque 2"><g id="Calque_1-2-2" data-name="Calque 1-2"><path class="cls-1" d="M186.5,22.05a6.13,6.13,0,0,0-1.43-2.71,3.49,3.49,0,0,0-1.06-.76,3.53,3.53,0,0,0-1.29-.26,3.36,3.36,0,0,0-1.21.22,3.61,3.61,0,0,0-1,.68,3.11,3.11,0,0,0,0,4.38,2.73,2.73,0,0,0,.92.66,2.52,2.52,0,0,0,1.11.24,3.14,3.14,0,0,0,1.84-.48,12.2,12.2,0,0,1,.75,4.05,8.55,8.55,0,0,1-1.83,5.67,5.49,5.49,0,0,1-4.4,2.2,3,3,0,0,1-2-.66,2.33,2.33,0,0,1-.63-.88,2.42,2.42,0,0,1-.18-1.07V21.17A2,2,0,0,0,175,19.43a5.42,5.42,0,0,0-2.87-.71,9.72,9.72,0,0,0-3.53.72,8.53,8.53,0,0,0-2.95,1.93l1.08,1.25a6.39,6.39,0,0,1,3.37-2V32.48a6.59,6.59,0,0,0,1.79,5,6,6,0,0,0,4.36,1.75q6.66,0,9.15-6.91-1.65,6.45-4.5,9.28a10,10,0,0,1-7.35,2.85,11,11,0,0,1-1.81-.1c-1.22-.13-3-.12-4.23-.12-15.32.06-108.73.31-115.77.31C44,44.5,6.45,97.08,1.18,97.18c-2,0-1,1.63-.34,1.38a12,12,0,0,0,4.82-2.74c8.2-8.65,39.31-46,47.17-47C58.45,48,153,51.06,174.51,50c2.27-.12,4.49-1.37,6.68-3.76a21.39,21.39,0,0,0,3-4.46,25.49,25.49,0,0,0,2.17-6.14,31.46,31.46,0,0,0,.82-7.11,26.87,26.87,0,0,0-.71-6.5Z"/><path class="cls-2" d="M43.91,12.9V11.3h8.84q9.75,0,12.35,4.49a8.66,8.66,0,0,1,1,4.29Q66.1,26,59.43,28a5.11,5.11,0,0,1,3.37,3.49l1.21,4a2.87,2.87,0,0,0,.73,1.4,2.14,2.14,0,0,0,1.49.4,4,4,0,0,0,2.45-1.16l.73,1A9.93,9.93,0,0,1,62.59,40a5.8,5.8,0,0,1-3-.64A3.65,3.65,0,0,1,58,37.12l-1.88-6.18A2.61,2.61,0,0,0,55,29.34a5.87,5.87,0,0,0-2.65-.48v9h3.17v1.6H43.91v-1.6h2.41v-25Zm8.84,0h-.41V27.24h.41A7.54,7.54,0,0,0,58,25.37a6.7,6.7,0,0,0,2.09-5.28A6.82,6.82,0,0,0,58,14.79a7.56,7.56,0,0,0-5.24-1.89Z"/><path class="cls-2" d="M78,28.13a5.6,5.6,0,0,0,1.42-3.53,4.31,4.31,0,0,0-.78-2.75,2.92,2.92,0,0,0-2.37-1c-1,0-2.07.75-3,2.25a11.08,11.08,0,0,0-1.45,6,11.81,11.81,0,0,0,1.37,6.06,4.29,4.29,0,0,0,3.89,2.29,8.31,8.31,0,0,0,3.61-.77,8.48,8.48,0,0,0,2.94-2.23l1.12.73a10.25,10.25,0,0,1-3.61,3.47A10.67,10.67,0,0,1,68.45,36.8a10.94,10.94,0,0,1-2.85-7.61,10.17,10.17,0,0,1,3-7.48c2-2,4.83-3,8.41-3a8.5,8.5,0,0,1,5.54,1.65,5.16,5.16,0,0,1,2,4.17,6.38,6.38,0,0,1-2.23,4.68,8,8,0,0,1-5.87,2.13,9.8,9.8,0,0,1-2.41-.28l-.08-1A5.51,5.51,0,0,0,78,28.13Z"/><path class="cls-2" d="M85.9,19.32a9.7,9.7,0,0,1,6,2,9.3,9.3,0,0,1,3.13-2,12.28,12.28,0,0,1,4.12-.59,5.71,5.71,0,0,1,2.21.37,5.64,5.64,0,0,1,1.89,1.22,5.88,5.88,0,0,1,1.58,4.31V34.94a2.51,2.51,0,0,0,.52,1.7,2.06,2.06,0,0,0,.74.5,1.87,1.87,0,0,0,.87.13,4.06,4.06,0,0,0,2.49-1.17l.72,1a9.56,9.56,0,0,1-6.46,2.9q-4.92,0-4.94-5.91V23.78a2.54,2.54,0,0,0-.16-1.05,2.48,2.48,0,0,0-.59-.88,3.08,3.08,0,0,0-2.11-.68,4.26,4.26,0,0,0-2.65,1.08,3.61,3.61,0,0,0-1,1.26A3.3,3.3,0,0,0,92,25.06V39.4H85.9V20.93a8.21,8.21,0,0,0-3.21.6L82.13,20a10,10,0,0,1,3.77-.72Z"/><path class="cls-2" d="M104.85,21.53V19.89h3.29V14.11h6v5.78h4.54v1.64h-4.54V34.94a2.51,2.51,0,0,0,.52,1.7,2.12,2.12,0,0,0,.73.5,1.89,1.89,0,0,0,.88.13,4.06,4.06,0,0,0,2.49-1.17l.72,1a9.59,9.59,0,0,1-6.4,2.9q-4.92,0-4.94-5.91V21.53Z"/><path class="cls-1" d="M123.11,12.9V11.3h9.64q12.57,0,12.56,7.62,0,5.31-6.22,6.91v.29q7.44,1.14,7.43,6.09a5.74,5.74,0,0,1-3.29,5.4q-3.3,1.77-9.27,1.79H123.11V37.79h2.41V12.9Zm9.59,0h-1.15V25.3h1.16a6.71,6.71,0,0,0,4.72-1.68A5.86,5.86,0,0,0,139.3,19a5.54,5.54,0,0,0-1.87-4.51,7.06,7.06,0,0,0-4.73-1.59Zm.85,13.93h-2v11h2a7.71,7.71,0,0,0,4.82-1.45,4.87,4.87,0,0,0,1.42-1.79,5.19,5.19,0,0,0-1.42-6.27,7.82,7.82,0,0,0-4.82-1.45Z"/><path class="cls-1" d="M153.7,21.17V34.94a2.56,2.56,0,0,0,.16,1,2.35,2.35,0,0,0,.59.89,3.11,3.11,0,0,0,2.13.68,4,4,0,0,0,2.65-1.13,3.58,3.58,0,0,0,1-1.31,3.67,3.67,0,0,0,.31-1.61V19.32h6V34.94a2.46,2.46,0,0,0,.52,1.7,1.74,1.74,0,0,0,.73.5,1.87,1.87,0,0,0,.87.13,3.1,3.1,0,0,0,2.25-1l.72,1A8.89,8.89,0,0,1,165.32,40a4.27,4.27,0,0,1-4.42-3,9.13,9.13,0,0,1-3.23,2.31,11.57,11.57,0,0,1-4.25.66,5.62,5.62,0,0,1-4.18-1.59,5.81,5.81,0,0,1-1.59-4.32V20.65a6.39,6.39,0,0,0-3.37,2L143.2,21.4a8.73,8.73,0,0,1,3-1.93,9.72,9.72,0,0,1,3.53-.72,5.45,5.45,0,0,1,2.88.71A2,2,0,0,1,153.7,21.17Z"/><path class="cls-2" d="M1.17,28.55a.83.83,0,0,1,.35-.39.88.88,0,0,1,.53-.09H3V16.67c0-.8.18-1,1-1l28.26.05c1.88,0,3.72,0,5.58-.05.92,0,1.06.13,1.06,1.07V28.08h1.27a.86.86,0,0,1,.23.13.65.65,0,0,1,.16.21.84.84,0,0,1,.07.26.6.6,0,0,1-.06.27.51.51,0,0,1-.15.23.61.61,0,0,1-.24.15.61.61,0,0,1-.27,0H25.3a1.6,1.6,0,0,1-.57-.07.64.64,0,0,1-.32-.27.64.64,0,0,1-.08-.41A.63.63,0,0,1,24.9,28h1V23.15a5.08,5.08,0,0,0-5.15-5,5.16,5.16,0,0,0-3.19,1.18,5,5,0,0,0-1.77,3.27c-.14,1.78,0,3.58,0,5.38l.06.1H17a.8.8,0,0,1,.22.13.74.74,0,0,1,.14.22.45.45,0,0,1,.05.25.47.47,0,0,1-.05.26.6.6,0,0,1-.35.35.43.43,0,0,1-.25.05H2.12a.79.79,0,0,1-.54-.09,1,1,0,0,1-.4-.37Zm11.56-7.11V18.21c0-.56-.23-.79-.79-.79H6.75c-.59,0-.82.23-.82.81v6.39c0,.58.23.81.82.82H11.9c.61,0,.83-.23.83-.84V21.44Zm23.06,0V18.25c0-.61-.22-.84-.82-.84H29.82c-.59,0-.82.22-.82.8v6.46c0,.56.23.78.8.78H35c.58,0,.8-.23.8-.82Z"/><path class="cls-2" d="M1.17,9.78a1.26,1.26,0,0,1,.42-.34,1.07,1.07,0,0,1,.53-.07H39.9a.58.58,0,0,1,.32.07.7.7,0,0,1,.24.21.64.64,0,0,1,0,.63c-.56,1.27-1.12,2.53-1.73,3.77-.09.18-.37.29-.57.38a1.15,1.15,0,0,1-.37,0H4a1.06,1.06,0,0,1-1.12-.71c-.53-1.19-1.12-2.35-1.7-3.52Z"/><path class="cls-2" d="M1.17.47A1.09,1.09,0,0,1,1.54.1,1,1,0,0,1,2.06,0H39.68c.66,0,.88.21.88.86V3.8c0,.56-.24.79-.79.81H2.14a1,1,0,0,1-.56-.09.94.94,0,0,1-.42-.37Z"/><path class="cls-2" d="M1.17,38.55a.88.88,0,0,1,.33-.36,1,1,0,0,1,.5-.11H16.61c.55,0,.91.33.77.77-.06.21-.29.36-.44.54H1.17Z"/><path class="cls-2" d="M24.79,39.4a.7.7,0,0,1-.39-.33.74.74,0,0,1-.06-.51c.12-.4.44-.48.82-.48H39.7c.37,0,.7.07.82.47s-.11.65-.42.85Z"/><path class="cls-2" d="M32.36,30.7H38c.64,0,.86.21.86.85v4.34c0,.66-.23.88-.88.88H26.84c-.68,0-.89-.22-.89-.9V31.56c0-.65.21-.86.88-.86Z"/><path class="cls-2" d="M9.39,30.7h5.53c.64,0,.86.22.86.85v4.38c0,.6-.24.84-.84.84H3.83c-.63,0-.86-.23-.86-.86V31.53c0-.62.23-.83.84-.83Z"/><path class="cls-2" d="M20.92,5.92H37.87c.8,0,1,.18,1,1v.46a.59.59,0,0,1,0,.27.55.55,0,0,1-.14.22.68.68,0,0,1-.49.2H3.94a.9.9,0,0,1-.46,0C3.3,7.9,3.06,7.74,3,7.56A2.64,2.64,0,0,1,3,6.44c0-.2.31-.38.51-.48S3.81,6,4,6Z"/><path class="cls-2" d="M7.25,21.44V19.21c0-.38.15-.5.51-.5h3.18c.34,0,.49.13.49.48v4.49c0,.34-.15.46-.46.46H7.74c-.37,0-.5-.16-.49-.52Z"/><path class="cls-2" d="M30.31,21.44V19.21c0-.38.15-.5.5-.5H34c.33,0,.49.13.49.48v4.49c0,.33-.16.46-.47.46H30.79c-.37,0-.49-.17-.48-.52C30.32,22.9,30.31,22.17,30.31,21.44Z"/><path class="cls-2" d="M41.77,97.81a63.17,63.17,0,0,0,5.11-8.46.67.67,0,0,1,.27-.35.72.72,0,0,1,.43-.1H64.5a.64.64,0,0,1,.69.41,66.47,66.47,0,0,0,5.11,8.5.55.55,0,0,0,.26.24.54.54,0,0,0,.35.07V99.4H41.78Zm20.72.29c-.1-.51-.19-1-.29-1.47a6.24,6.24,0,0,0-1.11-2.56A6.51,6.51,0,0,0,59,92.26a6.23,6.23,0,0,0-5.43-.19c-2.72,1.19-3.69,3.51-3.89,6Z"/><path class="cls-2" d="M52.75,85H49c1-3,2-6.07,3.09-9.17H60l3,9.11H59.3v-2a3.37,3.37,0,0,0-.61-1.84,3.29,3.29,0,0,0-4.59-.76,3.64,3.64,0,0,0-.55.49A3.16,3.16,0,0,0,52.76,83C52.75,83.61,52.75,84.26,52.75,85Z"/><path class="cls-2" d="M58,62.63c.23,2.18.45,4.35.68,6.54H53.4c.23-2.19.45-4.36.68-6.54Z"/><path class="cls-2" d="M65.48,86.3a10.7,10.7,0,0,1-.57,1.12.46.46,0,0,1-.21.13.49.49,0,0,1-.24,0H47.66a.52.52,0,0,1-.38-.07.6.6,0,0,1-.24-.3,8.59,8.59,0,0,0-.44-.92Z"/><path class="cls-2" d="M54.07,84.94v-2a2.06,2.06,0,0,1,.57-1.32,1.95,1.95,0,0,1,2.67-.12A1.88,1.88,0,0,1,58,82.76c.06.71,0,1.44,0,2.18Z"/><path class="cls-2" d="M51.2,73.14h9.68c-.2.42-.38.81-.6,1.19,0,.08-.2.11-.31.11H52.11a.4.4,0,0,1-.23-.08.52.52,0,0,1-.17-.16C51.54,73.88,51.4,73.54,51.2,73.14Z"/><path class="cls-2" d="M53.14,70.51h5.79l.25,1.28H52.92Z"/><path class="cls-2" d="M56.67,60v1.27H55.39V60Z"/><path class="cls-2" d="M119.07,78.7V94.32a2.58,2.58,0,0,0,.52,1.7,2.06,2.06,0,0,0,.74.5,1.87,1.87,0,0,0,.87.13,4.06,4.06,0,0,0,2.49-1.17l.72,1a9.6,9.6,0,0,1-6.41,2.9,4.34,4.34,0,0,1-4.7-3.58,6.65,6.65,0,0,1-6.14,3.58,8.47,8.47,0,0,1-7-3,11.82,11.82,0,0,1-2.4-7.63,11.34,11.34,0,0,1,2.59-7.65,9,9,0,0,1,7.24-3,6.26,6.26,0,0,1,5.5,2.85V78.71Zm-14,4A13.91,13.91,0,0,0,104,88.8a13.9,13.9,0,0,0,1.12,6.11,3.66,3.66,0,0,0,3.44,2.24A3.82,3.82,0,0,0,112,94.83a12.74,12.74,0,0,0,1.22-6.08,12.86,12.86,0,0,0-1.22-6.1,3.87,3.87,0,0,0-3.53-2.27,3.67,3.67,0,0,0-3.41,2.27Z"/><path class="cls-2" d="M140.59,78.1c.8,0,1.2.76,1.2,2.29V94.32a2.57,2.57,0,0,0,.53,1.7,1.74,1.74,0,0,0,.73.5,1.87,1.87,0,0,0,.87.13,4.06,4.06,0,0,0,2.49-1.17l.72,1a9.61,9.61,0,0,1-6.42,2.93c-3.29,0-4.94-2-4.94-5.9V82.19a16.69,16.69,0,0,1-4.57,1,21,21,0,0,1-2.13,7.39l-1.64-.49a19.39,19.39,0,0,0,1.2-6.79,3.42,3.42,0,0,1-2.47-.87,2.92,2.92,0,0,1-.7-1,2.71,2.71,0,0,1-.24-1.2,3.27,3.27,0,0,1,.23-1.19,3.19,3.19,0,0,1,.67-1,3.15,3.15,0,0,1,2.21-.91,3.19,3.19,0,0,1,1.19.23,2.92,2.92,0,0,1,1,.7,3.22,3.22,0,0,1,.88,2.36h.75a15,15,0,0,0,6.74-1.76,4.67,4.67,0,0,1,1.7-.6Z"/><path class="cls-2" d="M155.24,78.1c2.52,0,3.77,1.09,3.77,3.25v13a2.58,2.58,0,0,0,.52,1.7,2.06,2.06,0,0,0,.74.5,1.87,1.87,0,0,0,.87.13,4.06,4.06,0,0,0,2.49-1.17l.72,1a9.61,9.61,0,0,1-6.42,2.93c-3.29,0-4.94-2-4.94-5.9V80a6.26,6.26,0,0,0-3.37,2l-1.09-1.25a8.75,8.75,0,0,1,2.95-1.92,10.11,10.11,0,0,1,3.76-.73Zm-1.5-3.95A3.18,3.18,0,0,1,157.23,69,3.19,3.19,0,0,1,156,75.12a3.14,3.14,0,0,1-1.24-.23,3.32,3.32,0,0,1-1-.71Z"/><path class="cls-2" d="M171.78,82a5,5,0,0,1-1-2.65,2.78,2.78,0,0,1,.9-2.07,3.1,3.1,0,0,1,4.37,0,3.06,3.06,0,0,1,.68,1,3.17,3.17,0,0,1,.23,1.17,4.06,4.06,0,0,1-1.25,2.64,24.91,24.91,0,0,1,5.06,4.72,8.56,8.56,0,0,1,1.77,5.34A6.94,6.94,0,0,1,182,95a6.58,6.58,0,0,1-1.7,2.31,9.18,9.18,0,0,1-6.51,2.11,9.59,9.59,0,0,1-3.87-.84A7.47,7.47,0,0,1,167,96.43l.92-1a6,6,0,0,0,3.82,1.41,5,5,0,0,0,3.37-1.11,4.22,4.22,0,0,0,1.3-3.43,13.82,13.82,0,0,0-2.73-7.71l-6.06,7.59-1-.88Q169.62,86.4,171.78,82Z"/><path class="cls-2" d="M124.41,96.45s3.42-2.77,4.66-5.82l-1.64-.49a12.13,12.13,0,0,1-3.74,5.34Z"/><path class="cls-2" d="M164.35,96.45a45.52,45.52,0,0,0,3.21-4.22l-1-.88s-2.16,3.57-2.93,4.12Z"/><path class="cls-2" d="M147.13,96.45c3.94-3.37.89-6.43.54-8.92s2-5.53,2-5.53l-1.08-1.25s-2.55,3-2.49,5.53c.08,2.88,3.88,6.42.38,9.2"/><path class="cls-2" d="M74.52,74.94V73.29h9q10.11,0,12.66,4.86a10.88,10.88,0,0,1,0,9.2,6.7,6.7,0,0,1-2.92,2.92c-2.4,1.3-5.65,1.94-9.74,1.94H83.1v8.22h3.29v1.64H74.52v-1.64H77V74.94Zm9,0H83.1V90.56h.42a7.43,7.43,0,0,0,5.38-2A7.6,7.6,0,0,0,91,82.8,7.58,7.58,0,0,0,89,77a7.47,7.47,0,0,0-5.43-2.06Z"/></g></g></g></g></svg>